<svg id="svg" xmlns="http://www.w3.org/2000/svg" xmlns:xlink="http://www.w3.org/1999/xlink" width="400" height="400" viewBox="0, 0, 400,400"><g id="svgg"><path id="path0" d="M1.763 2.329 C 0.476 3.700,0.851 17.082,2.201 17.916 C 2.413 18.047,2.586 18.930,2.586 19.878 C 2.586 20.918,2.757 21.497,3.017 21.336 C 3.276 21.176,3.448 21.739,3.448 22.748 C 3.448 23.670,3.594 24.570,3.772 24.747 C 4.104 25.079,4.981 28.980,5.450 32.220 C 5.596 33.227,5.884 34.052,6.091 34.052 C 6.297 34.052,6.466 34.828,6.466 35.776 C 6.466 36.724,6.659 37.500,6.897 37.500 C 7.134 37.500,7.328 38.276,7.328 39.224 C 7.328 40.172,7.501 40.948,7.713 40.948 C 7.926 40.948,8.192 41.676,8.306 42.565 C 8.636 45.149,9.546 49.288,9.962 50.102 C 10.173 50.514,10.345 51.532,10.345 52.365 C 10.345 53.198,10.539 53.879,10.776 53.879 C 11.013 53.879,11.207 54.464,11.207 55.178 C 11.207 55.893,11.377 56.814,11.584 57.226 C 12.142 58.332,13.370 63.826,13.366 65.194 C 13.364 65.846,13.556 66.379,13.793 66.379 C 14.030 66.379,14.224 67.264,14.224 68.344 C 14.224 69.545,14.392 70.206,14.655 70.043 C 14.912 69.884,15.086 70.400,15.086 71.317 C 15.086 72.164,15.256 73.193,15.463 73.605 C 15.978 74.626,17.249 80.160,17.245 81.358 C 17.243 81.891,17.435 82.328,17.672 82.328 C 17.909 82.328,18.103 83.200,18.103 84.267 C 18.103 85.334,18.297 86.207,18.534 86.207 C 18.772 86.207,18.966 86.853,18.966 87.644 C 18.966 88.434,19.111 89.225,19.289 89.402 C 19.621 89.734,20.498 93.635,20.967 96.875 C 21.113 97.883,21.402 98.707,21.608 98.707 C 21.814 98.707,21.983 99.483,21.983 100.431 C 21.983 101.379,22.177 102.155,22.414 102.155 C 22.651 102.155,22.845 102.837,22.845 103.670 C 22.845 104.503,23.015 105.521,23.222 105.933 C 23.689 106.859,25.009 112.442,25.004 113.470 C 25.002 113.885,25.194 114.224,25.431 114.224 C 25.668 114.224,25.862 114.709,25.862 115.302 C 25.862 115.894,26.056 116.379,26.293 116.379 C 26.530 116.379,26.724 116.767,26.724 117.241 C 26.724 117.716,26.905 118.103,27.126 118.103 C 27.347 118.103,27.639 118.443,27.774 118.858 C 28.102 119.863,31.675 123.707,32.281 123.707 C 32.544 123.707,32.760 123.852,32.762 124.030 C 32.763 124.208,33.477 124.838,34.347 125.431 C 35.217 126.024,36.137 126.706,36.391 126.947 C 36.645 127.188,37.920 128.140,39.224 129.061 C 40.528 129.983,41.659 130.901,41.739 131.101 C 41.818 131.302,42.157 131.466,42.493 131.466 C 42.829 131.466,43.105 131.611,43.106 131.789 C 43.108 131.967,43.783 132.571,44.606 133.131 C 45.429 133.692,46.482 134.480,46.946 134.882 C 47.411 135.285,48.309 135.990,48.943 136.449 C 49.577 136.909,50.351 137.527,50.664 137.823 C 50.976 138.120,51.351 138.362,51.497 138.362 C 51.644 138.362,52.248 138.847,52.841 139.440 C 53.434 140.032,54.055 140.517,54.222 140.518 C 54.389 140.518,55.043 140.954,55.675 141.488 C 58.339 143.735,58.647 143.966,58.982 143.966 C 59.175 143.966,59.788 144.450,60.345 145.043 C 60.902 145.636,61.519 146.121,61.717 146.121 C 61.915 146.121,62.686 146.703,63.430 147.414 C 64.174 148.125,64.939 148.707,65.131 148.707 C 65.322 148.707,65.963 149.192,66.556 149.784 C 67.148 150.377,67.836 150.862,68.084 150.862 C 68.332 150.862,68.534 151.014,68.534 151.200 C 68.534 151.386,69.068 151.856,69.720 152.245 C 70.372 152.633,71.293 153.308,71.767 153.744 C 72.241 154.180,73.696 155.291,75.000 156.214 C 76.304 157.137,77.435 158.056,77.514 158.256 C 77.593 158.457,77.933 158.621,78.269 158.621 C 78.605 158.621,78.884 158.766,78.889 158.944 C 78.894 159.122,79.766 159.849,80.828 160.560 C 81.889 161.272,82.757 161.999,82.758 162.177 C 82.758 162.355,82.961 162.500,83.209 162.500 C 83.457 162.500,84.145 162.985,84.737 163.578 C 85.330 164.170,85.971 164.655,86.163 164.655 C 86.354 164.655,87.119 165.237,87.863 165.948 C 88.607 166.659,89.329 167.241,89.467 167.241 C 89.604 167.241,89.972 167.484,90.285 167.780 C 90.597 168.077,91.396 168.707,92.060 169.181 C 95.807 171.858,97.734 173.312,98.584 174.107 C 99.109 174.598,99.739 175.000,99.985 175.000 C 100.230 175.000,100.432 175.145,100.434 175.323 C 100.436 175.501,101.109 176.104,101.931 176.664 C 102.752 177.223,103.963 178.145,104.622 178.711 C 105.280 179.277,105.956 179.741,106.123 179.741 C 106.290 179.741,106.911 180.226,107.504 180.819 C 108.097 181.412,108.768 181.897,108.996 181.897 C 109.224 181.897,109.476 182.045,109.555 182.227 C 109.634 182.409,110.765 183.326,112.069 184.266 C 113.373 185.205,114.648 186.172,114.902 186.414 C 115.156 186.656,116.076 187.338,116.946 187.931 C 117.817 188.524,118.530 189.154,118.532 189.332 C 118.533 189.510,118.809 189.655,119.145 189.655 C 119.481 189.655,119.820 189.809,119.899 189.996 C 119.978 190.184,120.815 190.911,121.759 191.613 C 123.548 192.943,124.468 193.669,125.964 194.935 C 126.455 195.350,126.992 195.690,127.157 195.690 C 127.323 195.690,128.067 196.272,128.811 196.983 C 129.556 197.694,130.280 198.276,130.420 198.276 C 130.685 198.276,135.332 201.798,136.818 203.125 C 137.282 203.540,137.811 203.879,137.993 203.879 C 138.174 203.879,138.808 204.364,139.400 204.957 C 139.993 205.550,140.598 206.034,140.744 206.034 C 140.890 206.034,141.265 206.277,141.578 206.573 C 141.890 206.870,142.684 207.500,143.342 207.974 C 144.000 208.448,144.749 209.034,145.007 209.276 C 145.264 209.518,146.541 210.485,147.845 211.424 C 149.149 212.363,150.280 213.281,150.359 213.462 C 150.438 213.644,150.778 213.793,151.114 213.793 C 151.449 213.793,151.725 213.939,151.727 214.116 C 151.729 214.294,152.404 214.898,153.227 215.459 C 154.050 216.019,155.119 216.822,155.603 217.241 C 156.087 217.661,157.157 218.463,157.980 219.024 C 158.803 219.584,159.478 220.189,159.480 220.366 C 159.481 220.544,159.686 220.690,159.933 220.690 C 160.181 220.690,160.869 221.175,161.462 221.767 C 162.054 222.360,162.696 222.845,162.887 222.845 C 163.078 222.845,163.843 223.427,164.587 224.138 C 165.332 224.849,166.101 225.431,166.298 225.431 C 166.494 225.431,167.448 226.110,168.418 226.940 C 169.387 227.769,170.305 228.448,170.458 228.448 C 170.611 228.448,171.356 229.029,172.114 229.739 C 172.872 230.449,173.628 231.031,173.795 231.032 C 173.962 231.034,174.584 231.519,175.176 232.112 C 175.769 232.705,176.374 233.190,176.520 233.190 C 176.666 233.190,177.056 233.432,177.387 233.728 C 178.664 234.874,179.283 235.345,179.512 235.345 C 179.642 235.345,180.358 235.927,181.102 236.638 C 181.847 237.349,182.612 237.931,182.803 237.931 C 182.994 237.931,183.635 238.416,184.228 239.009 C 184.821 239.601,185.508 240.086,185.756 240.086 C 186.004 240.086,186.207 240.280,186.207 240.517 C 186.207 240.754,186.498 240.948,186.853 240.948 C 187.209 240.948,187.501 241.094,187.503 241.272 C 187.505 241.449,188.179 242.053,189.003 242.614 C 189.826 243.175,190.895 243.977,191.379 244.397 C 191.863 244.816,192.933 245.618,193.756 246.179 C 194.579 246.740,195.254 247.344,195.256 247.522 C 195.257 247.699,195.550 247.845,195.905 247.845 C 196.261 247.845,196.552 247.997,196.552 248.183 C 196.552 248.369,197.085 248.839,197.737 249.227 C 198.389 249.616,199.310 250.290,199.784 250.726 C 200.259 251.162,201.713 252.274,203.017 253.197 C 204.321 254.120,205.453 255.039,205.532 255.239 C 205.611 255.439,205.867 255.603,206.101 255.603 C 206.335 255.603,206.772 255.846,207.072 256.142 C 207.371 256.439,208.155 257.069,208.813 257.543 C 209.471 258.017,210.265 258.648,210.577 258.944 C 210.890 259.240,211.258 259.483,211.396 259.483 C 211.533 259.483,212.255 260.065,212.999 260.776 C 213.743 261.487,214.508 262.069,214.700 262.069 C 214.891 262.069,215.532 262.554,216.125 263.147 C 216.717 263.739,217.322 264.224,217.468 264.224 C 217.614 264.224,217.990 264.467,218.302 264.763 C 218.614 265.059,219.408 265.690,220.066 266.164 C 220.725 266.638,221.508 267.268,221.808 267.565 C 222.107 267.861,222.560 268.103,222.814 268.103 C 223.068 268.103,223.280 268.249,223.285 268.427 C 223.291 268.605,224.163 269.332,225.224 270.043 C 226.285 270.754,227.154 271.482,227.154 271.659 C 227.155 271.837,227.446 271.983,227.802 271.983 C 228.157 271.983,228.450 272.128,228.451 272.306 C 228.453 272.484,229.128 273.088,229.951 273.649 C 230.774 274.209,231.844 275.011,232.328 275.431 C 232.812 275.851,233.881 276.653,234.704 277.214 C 235.528 277.774,236.202 278.378,236.204 278.556 C 236.206 278.734,236.498 278.879,236.853 278.879 C 237.209 278.879,237.500 279.073,237.500 279.310 C 237.500 281.474,240.333 279.527,247.250 272.609 L 254.382 265.477 253.251 263.994 C 251.903 262.227,248.265 258.242,244.397 254.297 C 242.856 252.726,239.655 249.344,237.284 246.783 C 234.914 244.222,231.713 240.764,230.172 239.099 C 228.631 237.435,226.013 234.656,224.353 232.924 C 222.694 231.192,219.881 228.212,218.103 226.301 C 216.325 224.391,213.707 221.601,212.284 220.103 C 210.862 218.604,207.759 215.275,205.388 212.704 C 203.017 210.133,199.817 206.752,198.276 205.190 C 196.735 203.628,194.382 201.094,193.046 199.559 C 191.711 198.024,188.995 195.097,187.012 193.057 C 185.028 191.016,182.089 187.912,180.481 186.160 C 177.132 182.511,170.575 175.497,166.164 170.846 C 164.504 169.096,161.692 166.100,159.914 164.187 C 158.136 162.275,155.517 159.496,154.095 158.012 C 152.672 156.527,149.569 153.209,147.198 150.639 C 144.828 148.068,141.530 144.571,139.871 142.868 C 138.211 141.165,136.046 138.824,135.059 137.666 C 134.071 136.508,131.453 133.696,129.240 131.417 C 127.026 129.138,123.955 125.872,122.414 124.159 C 120.873 122.446,118.103 119.510,116.259 117.634 C 111.149 112.436,112.951 113.571,118.774 119.217 C 121.605 121.963,125.262 125.406,126.899 126.868 C 128.536 128.330,131.834 131.423,134.227 133.742 C 136.620 136.061,139.413 138.680,140.434 139.561 C 141.455 140.443,143.705 142.522,145.434 144.181 C 148.608 147.228,157.313 155.406,160.345 158.190 C 161.248 159.019,164.867 162.431,168.386 165.770 C 171.905 169.110,175.644 172.601,176.694 173.529 C 177.744 174.457,180.653 177.215,183.159 179.660 C 185.665 182.104,188.667 184.917,189.831 185.910 C 190.994 186.903,193.346 189.073,195.057 190.733 C 196.767 192.392,199.598 195.071,201.346 196.686 C 206.833 201.752,214.231 208.716,217.459 211.853 C 219.166 213.513,221.975 216.131,223.701 217.672 C 225.428 219.213,228.372 221.964,230.244 223.786 C 232.117 225.607,235.526 228.807,237.820 230.898 C 240.114 232.988,243.466 236.153,245.269 237.931 C 247.071 239.709,249.954 242.425,251.675 243.966 C 253.396 245.506,256.670 248.561,258.952 250.754 C 264.447 256.036,263.658 256.221,272.222 247.637 C 279.713 240.130,280.150 239.426,278.448 237.599 C 277.974 237.090,277.586 236.472,277.586 236.225 C 277.586 235.978,277.441 235.772,277.263 235.766 C 277.085 235.761,276.358 234.889,275.647 233.828 C 274.935 232.767,274.208 231.898,274.030 231.897 C 273.852 231.897,273.707 231.677,273.707 231.408 C 273.707 231.140,273.354 230.606,272.922 230.223 C 272.490 229.840,271.770 228.895,271.320 228.125 C 270.871 227.355,270.352 226.724,270.166 226.724 C 269.980 226.724,269.828 226.433,269.828 226.078 C 269.828 225.722,269.682 225.431,269.504 225.430 C 269.327 225.430,268.599 224.561,267.888 223.500 C 267.177 222.439,266.449 221.566,266.272 221.561 C 266.094 221.556,265.948 221.261,265.948 220.905 C 265.948 220.550,265.803 220.254,265.625 220.249 C 265.447 220.244,264.720 219.372,264.009 218.310 C 263.297 217.249,262.570 216.381,262.392 216.380 C 262.214 216.380,262.069 216.160,262.069 215.891 C 262.069 215.623,261.716 215.089,261.284 214.706 C 260.852 214.322,260.132 213.378,259.682 212.608 C 259.233 211.837,258.714 211.207,258.528 211.207 C 258.342 211.207,258.190 210.916,258.190 210.560 C 258.190 210.205,258.044 209.913,257.866 209.913 C 257.689 209.912,256.961 209.044,256.250 207.983 C 255.539 206.922,254.811 206.049,254.634 206.044 C 254.456 206.039,254.310 205.744,254.310 205.388 C 254.310 205.032,254.165 204.737,253.987 204.732 C 253.809 204.727,253.082 203.854,252.371 202.793 C 251.659 201.732,250.932 200.864,250.754 200.863 C 250.577 200.862,250.431 200.642,250.431 200.374 C 250.431 200.105,250.078 199.572,249.646 199.188 C 249.214 198.805,248.494 197.861,248.045 197.091 C 247.595 196.320,247.076 195.690,246.890 195.690 C 246.704 195.690,246.552 195.415,246.552 195.079 C 246.552 194.743,246.388 194.404,246.187 194.325 C 245.987 194.246,245.069 193.114,244.147 191.810 C 243.226 190.506,242.275 189.232,242.033 188.978 C 241.792 188.723,241.110 187.803,240.517 186.933 C 239.925 186.063,239.294 185.349,239.116 185.348 C 238.939 185.346,238.793 185.054,238.793 184.698 C 238.793 184.343,238.648 184.047,238.470 184.042 C 238.292 184.037,237.565 183.165,236.853 182.104 C 236.142 181.042,235.415 180.174,235.237 180.173 C 235.059 180.173,234.914 179.898,234.914 179.562 C 234.914 179.226,234.750 178.886,234.549 178.807 C 234.349 178.728,233.433 177.597,232.515 176.293 C 231.596 174.989,230.735 173.825,230.602 173.707 C 230.469 173.588,229.594 172.425,228.658 171.121 C 227.723 169.817,226.759 168.542,226.517 168.288 C 226.276 168.034,225.593 167.114,225.000 166.243 C 224.407 165.373,223.777 164.660,223.599 164.658 C 223.421 164.656,223.276 164.380,223.276 164.045 C 223.276 163.709,223.112 163.369,222.911 163.290 C 222.711 163.211,221.795 162.080,220.877 160.776 C 219.958 159.472,219.097 158.308,218.964 158.190 C 218.831 158.071,217.956 156.907,217.020 155.603 C 216.085 154.300,215.121 153.025,214.880 152.771 C 214.638 152.516,213.955 151.596,213.362 150.726 C 212.769 149.856,212.139 149.142,211.961 149.141 C 211.783 149.139,211.638 148.863,211.638 148.527 C 211.638 148.191,211.489 147.852,211.307 147.773 C 211.125 147.694,210.207 146.562,209.266 145.259 C 208.326 143.955,207.214 142.512,206.795 142.052 C 206.377 141.593,206.034 141.089,206.034 140.933 C 206.034 140.777,205.695 140.248,205.280 139.757 C 204.014 138.261,203.288 137.341,201.958 135.552 C 201.256 134.608,200.529 133.772,200.341 133.693 C 200.154 133.614,200.000 133.320,200.000 133.041 C 200.000 132.762,199.325 131.760,198.500 130.814 C 197.674 129.869,196.996 128.895,196.991 128.651 C 196.986 128.407,196.595 127.928,196.121 127.586 C 195.647 127.244,195.259 126.800,195.259 126.598 C 195.259 126.397,195.016 125.976,194.720 125.664 C 194.423 125.351,193.805 124.577,193.346 123.943 C 192.886 123.309,192.159 122.385,191.729 121.890 C 191.300 121.394,190.947 120.873,190.946 120.731 C 190.945 120.590,190.363 119.854,189.653 119.097 C 188.943 118.339,188.362 117.561,188.362 117.368 C 188.362 117.175,187.687 116.243,186.862 115.297 C 186.037 114.351,185.358 113.378,185.353 113.134 C 185.349 112.890,184.957 112.411,184.483 112.069 C 184.009 111.727,183.621 111.283,183.621 111.081 C 183.621 110.879,183.378 110.459,183.082 110.146 C 182.786 109.834,182.167 109.060,181.708 108.426 C 181.249 107.792,180.570 106.910,180.199 106.467 C 179.829 106.023,178.750 104.562,177.802 103.221 C 176.853 101.879,175.738 100.382,175.323 99.894 C 174.908 99.405,174.569 98.871,174.569 98.705 C 174.569 98.539,173.987 97.795,173.276 97.051 C 172.565 96.306,171.983 95.585,171.983 95.447 C 171.983 95.310,171.740 94.927,171.444 94.596 C 170.252 93.267,169.828 92.695,169.828 92.418 C 169.828 92.258,169.474 91.813,169.043 91.430 C 168.611 91.046,167.890 90.102,167.441 89.332 C 166.992 88.561,166.472 87.931,166.286 87.931 C 166.100 87.931,165.948 87.640,165.948 87.284 C 165.948 86.929,165.754 86.638,165.517 86.638 C 165.280 86.638,165.086 86.435,165.086 86.187 C 165.086 85.939,164.601 85.252,164.009 84.659 C 163.416 84.066,162.931 83.425,162.931 83.234 C 162.931 83.043,162.349 82.278,161.638 81.533 C 160.927 80.789,160.345 80.068,160.345 79.930 C 160.345 79.792,160.102 79.409,159.806 79.079 C 158.572 77.703,158.190 77.173,158.190 76.837 C 158.190 76.643,157.802 76.204,157.328 75.862 C 156.853 75.520,156.466 75.039,156.466 74.793 C 156.466 74.546,155.981 73.822,155.388 73.183 C 154.795 72.543,154.310 71.818,154.310 71.571 C 154.310 71.323,154.116 71.121,153.879 71.121 C 153.642 71.121,153.448 70.918,153.448 70.670 C 153.448 70.422,152.963 69.735,152.371 69.142 C 151.778 68.549,151.293 67.928,151.293 67.761 C 151.292 67.594,150.843 66.935,150.295 66.297 C 149.746 65.659,148.922 64.619,148.463 63.986 C 148.005 63.353,147.387 62.580,147.091 62.268 C 146.794 61.955,146.552 61.535,146.552 61.333 C 146.552 61.131,146.164 60.687,145.690 60.345 C 145.216 60.003,144.828 59.522,144.828 59.275 C 144.828 59.029,144.343 58.304,143.750 57.665 C 143.157 57.026,142.672 56.301,142.672 56.053 C 142.672 55.806,142.478 55.603,142.241 55.603 C 142.004 55.603,141.810 55.401,141.810 55.153 C 141.810 54.905,141.325 54.217,140.733 53.625 C 140.140 53.032,139.655 52.410,139.655 52.243 C 139.654 52.076,139.205 51.418,138.657 50.780 C 138.108 50.142,137.284 49.102,136.825 48.469 C 136.367 47.836,135.749 47.063,135.453 46.750 C 135.156 46.438,134.914 45.974,134.914 45.720 C 134.914 45.466,134.768 45.254,134.591 45.249 C 134.413 45.244,133.685 44.372,132.974 43.310 C 132.263 42.249,131.536 41.381,131.358 41.380 C 131.180 41.380,131.034 41.088,131.034 40.733 C 131.034 40.377,130.841 40.086,130.603 40.086 C 130.366 40.086,130.172 39.883,130.172 39.636 C 130.172 39.388,129.688 38.700,129.095 38.107 C 128.502 37.515,128.017 36.881,128.017 36.700 C 128.017 36.518,127.678 35.993,127.263 35.534 C 126.848 35.074,125.939 33.922,125.242 32.974 C 123.558 30.681,119.846 27.155,119.117 27.155 C 118.797 27.155,118.534 26.961,118.534 26.724 C 118.534 26.487,118.260 26.293,117.924 26.293 C 117.588 26.293,117.249 26.145,117.170 25.964 C 116.984 25.538,112.485 24.138,111.302 24.138 C 110.804 24.138,110.276 23.944,110.129 23.707 C 109.983 23.470,109.099 23.276,108.164 23.276 C 107.230 23.276,106.466 23.082,106.466 22.845 C 106.466 22.608,105.701 22.414,104.767 22.414 C 103.833 22.414,102.948 22.220,102.802 21.983 C 102.655 21.746,102.041 21.552,101.437 21.552 C 100.058 21.552,94.434 20.313,93.433 19.788 C 93.021 19.573,92.003 19.397,91.170 19.397 C 90.337 19.397,89.655 19.203,89.655 18.966 C 89.655 18.728,88.782 18.534,87.716 18.534 C 86.649 18.534,85.776 18.366,85.776 18.160 C 85.776 17.953,84.952 17.677,83.944 17.546 C 80.993 17.161,77.000 16.314,76.191 15.900 C 75.780 15.690,74.750 15.517,73.903 15.517 C 72.986 15.517,72.471 15.343,72.629 15.086 C 72.792 14.823,72.139 14.655,70.956 14.655 C 69.889 14.655,68.897 14.461,68.750 14.224 C 68.603 13.987,68.059 13.796,67.539 13.799 C 66.274 13.806,60.321 12.512,59.381 12.025 C 58.969 11.812,57.951 11.638,57.118 11.638 C 56.285 11.638,55.603 11.444,55.603 11.207 C 55.603 10.970,54.731 10.776,53.664 10.776 C 52.597 10.776,51.724 10.607,51.724 10.401 C 51.724 10.195,50.900 9.919,49.892 9.787 C 46.941 9.403,42.948 8.555,42.139 8.142 C 41.728 7.931,40.698 7.759,39.851 7.759 C 38.934 7.759,38.419 7.584,38.578 7.328 C 38.740 7.064,38.079 6.897,36.879 6.897 C 35.798 6.897,34.914 6.722,34.914 6.509 C 34.914 6.296,34.089 6.031,33.082 5.920 C 30.521 5.638,26.223 4.719,25.329 4.262 C 24.917 4.052,23.899 3.879,23.066 3.879 C 22.233 3.879,21.552 3.685,21.552 3.448 C 21.552 3.211,20.870 3.017,20.037 3.017 C 19.204 3.017,18.186 2.844,17.774 2.633 C 14.546 0.974,3.238 0.759,1.763 2.329 M305.603 237.069 C 305.603 237.306,305.234 237.500,304.782 237.500 C 303.778 237.500,237.876 303.252,236.882 305.245 C 236.032 306.949,236.011 310.296,236.841 311.912 C 237.664 313.515,247.351 323.276,248.119 323.276 C 248.442 323.276,248.707 323.470,248.707 323.707 C 248.707 323.956,250.077 324.138,251.955 324.138 L 255.203 324.138 266.598 312.765 C 278.310 301.075,278.456 300.967,279.102 303.539 C 279.263 304.179,280.103 305.237,280.969 305.891 C 281.835 306.544,283.804 308.280,285.345 309.749 C 286.886 311.218,288.825 312.972,289.655 313.646 C 290.485 314.319,291.455 315.196,291.810 315.593 C 292.166 315.991,294.203 317.808,296.336 319.631 C 298.470 321.454,300.617 323.359,301.108 323.865 C 301.598 324.371,303.340 325.948,304.977 327.371 C 307.714 329.748,312.419 333.959,312.931 334.491 C 313.050 334.614,314.590 335.972,316.354 337.508 C 318.117 339.045,320.348 341.055,321.310 341.975 C 322.273 342.895,323.917 344.350,324.964 345.208 C 326.011 346.066,328.048 347.891,329.490 349.265 C 330.932 350.639,332.672 352.190,333.356 352.713 C 334.040 353.236,336.271 355.249,338.313 357.186 C 340.355 359.123,342.606 361.160,343.316 361.712 C 344.025 362.264,346.223 364.267,348.199 366.164 C 350.176 368.060,352.115 369.793,352.508 370.014 C 352.901 370.236,354.013 371.205,354.978 372.169 C 355.943 373.134,358.752 375.765,361.220 378.017 C 363.687 380.269,366.391 382.753,367.228 383.537 C 375.286 391.083,379.452 390.675,386.170 381.681 C 386.701 380.970,388.437 379.030,390.027 377.371 C 396.353 370.770,398.950 366.450,397.476 364.976 C 397.205 364.705,396.983 364.160,396.983 363.766 C 396.983 363.093,392.853 358.952,388.103 354.863 C 386.942 353.864,384.828 351.952,383.405 350.616 C 381.983 349.280,380.140 347.674,379.310 347.047 C 378.481 346.421,377.025 345.131,376.075 344.182 C 375.126 343.233,373.186 341.489,371.765 340.306 C 370.344 339.123,367.920 336.964,366.379 335.508 C 364.838 334.051,362.414 331.891,360.991 330.708 C 359.569 329.524,357.823 327.927,357.112 327.158 C 356.401 326.390,354.558 324.728,353.017 323.465 C 351.476 322.203,348.761 319.805,346.983 318.136 C 345.205 316.468,343.608 315.099,343.435 315.095 C 343.261 315.090,341.985 313.971,340.598 312.608 C 337.290 309.357,335.005 307.328,334.652 307.328 C 334.495 307.328,333.260 306.212,331.908 304.849 C 328.597 301.513,325.540 298.707,325.216 298.707 C 325.071 298.707,323.536 297.301,321.806 295.582 C 320.076 293.863,318.123 292.069,317.467 291.595 C 316.811 291.121,314.862 289.375,313.137 287.716 C 311.411 286.056,308.175 283.055,305.944 281.046 L 301.889 277.395 312.582 266.694 C 322.490 256.779,323.276 255.882,323.276 254.480 C 323.276 253.581,323.451 253.074,323.707 253.233 C 323.944 253.379,324.138 253.088,324.138 252.586 C 324.138 252.084,323.944 251.793,323.707 251.940 C 323.450 252.098,323.276 251.585,323.276 250.672 C 323.276 249.828,323.082 249.138,322.845 249.138 C 322.608 249.138,322.414 248.881,322.414 248.568 C 322.414 248.124,316.946 242.449,312.271 238.039 C 311.957 237.742,311.395 237.500,311.022 237.500 C 310.650 237.500,310.345 237.306,310.345 237.069 C 310.345 236.832,309.278 236.638,307.974 236.638 C 306.670 236.638,305.603 236.832,305.603 237.069 M288.037 297.953 C 288.326 298.739,287.945 299.569,287.295 299.569 C 286.517 299.569,286.169 298.486,286.758 297.897 C 287.387 297.268,287.792 297.285,288.037 297.953 M302.076 298.919 C 304.086 300.824,305.221 300.827,306.999 298.932 C 308.290 297.556,308.474 297.485,309.241 298.069 C 310.058 298.691,310.051 298.732,308.948 299.891 C 306.995 301.945,306.974 303.223,308.863 304.954 C 311.279 307.167,309.925 309.046,307.468 306.889 C 305.521 305.179,304.220 305.240,302.441 307.126 C 300.020 309.693,298.536 308.403,300.862 305.753 C 302.662 303.703,302.595 302.104,300.647 300.617 C 299.004 299.364,298.860 298.986,299.677 298.059 C 300.390 297.248,300.268 297.204,302.076 298.919 M320.507 312.752 C 322.898 313.394,323.325 316.644,321.286 318.682 C 319.796 320.173,318.345 320.136,316.777 318.568 C 314.025 315.815,316.653 311.717,320.507 312.752 M342.672 323.943 C 342.672 324.753,341.822 325.184,341.285 324.647 C 340.641 324.003,341.207 322.806,342.010 323.114 C 342.374 323.254,342.672 323.627,342.672 323.943 M330.603 337.284 C 330.603 338.075,330.374 338.362,329.741 338.362 C 328.679 338.362,328.609 337.269,329.634 336.672 C 330.642 336.085,330.603 336.061,330.603 337.284 M362.845 352.241 C 363.832 353.229,363.476 355.127,362.245 355.436 C 360.424 355.893,359.102 354.309,360.071 352.830 C 360.847 351.646,362.004 351.401,362.845 352.241 M371.659 360.519 C 372.621 361.564,372.607 361.876,371.552 362.931 C 369.749 364.733,367.311 362.531,368.782 360.429 C 369.565 359.313,370.580 359.344,371.659 360.519 " stroke="none" fill="#000000" fill-rule="evenodd"></path></g></svg>