<svg id="svg" version="1.1" xmlns="http://www.w3.org/2000/svg" xmlns:xlink="http://www.w3.org/1999/xlink" width="400" height="387.71929824561397" viewBox="0, 0, 400,387.71929824561397"><g id="svgg"><path id="path0" d="M3.509 3.509 C -2.017 9.034,-2.017 378.685,3.509 384.211 C 9.035 389.737,390.965 389.737,396.491 384.211 C 402.017 378.685,402.017 9.034,396.491 3.509 C 390.965 -2.018,9.035 -2.018,3.509 3.509 M126.316 71.930 L 126.316 122.807 73.684 122.807 L 21.053 122.807 21.053 71.930 L 21.053 21.053 73.684 21.053 L 126.316 21.053 126.316 71.930 M252.632 71.930 L 252.632 122.807 200.000 122.807 L 147.368 122.807 147.368 71.930 L 147.368 21.053 200.000 21.053 L 252.632 21.053 252.632 71.930 M378.947 71.930 L 378.947 122.807 326.316 122.807 L 273.684 122.807 273.684 71.930 L 273.684 21.053 326.316 21.053 L 378.947 21.053 378.947 71.930 M126.316 193.860 L 126.316 243.860 73.684 243.860 L 21.053 243.860 21.053 193.860 L 21.053 143.860 73.684 143.860 L 126.316 143.860 126.316 193.860 M252.632 193.860 L 252.632 243.860 200.000 243.860 L 147.368 243.860 147.368 193.860 L 147.368 143.860 200.000 143.860 L 252.632 143.860 252.632 193.860 M378.947 193.860 L 378.947 243.860 326.316 243.860 L 273.684 243.860 273.684 193.860 L 273.684 143.860 326.316 143.860 L 378.947 143.860 378.947 193.860 M126.316 315.789 L 126.316 366.667 73.684 366.667 L 21.053 366.667 21.053 315.789 L 21.053 264.912 73.684 264.912 L 126.316 264.912 126.316 315.789 M252.632 315.789 L 252.632 366.667 200.000 366.667 L 147.368 366.667 147.368 315.789 L 147.368 264.912 200.000 264.912 L 252.632 264.912 252.632 315.789 M378.947 315.789 L 378.947 366.667 326.316 366.667 L 273.684 366.667 273.684 315.789 L 273.684 264.912 326.316 264.912 L 378.947 264.912 378.947 315.789 " stroke="none" fill="#000000" fill-rule="evenodd"></path></g></svg>