<?xml version="1.0" encoding="UTF-8"?>
<!DOCTYPE svg PUBLIC "-//W3C//DTD SVG 1.1//EN" "http://www.w3.org/Graphics/SVG/1.1/DTD/svg11.dtd">
<svg xmlns="http://www.w3.org/2000/svg" version="1.1" width="512px" height="512px" style="shape-rendering:geometricPrecision; text-rendering:geometricPrecision; image-rendering:optimizeQuality; fill-rule:evenodd; clip-rule:evenodd" xmlns:xlink="http://www.w3.org/1999/xlink">
<g><path style="opacity:0.146" fill="#1f536b" d="M 291.5,71.5 C 285.855,70.8658 280.189,70.5324 274.5,70.5C 274.5,67.1667 274.5,63.8333 274.5,60.5C 273.127,60.3433 271.793,60.51 270.5,61C 266.307,64.3651 262.307,67.8651 258.5,71.5C 255.025,72.8018 252.858,75.1351 252,78.5C 256.674,82.3431 261.174,86.3431 265.5,90.5C 267.971,92.0706 270.637,93.0706 273.5,93.5C 273.5,90.1667 273.5,86.8333 273.5,83.5C 295.198,85.6214 315.198,92.2881 333.5,103.5C 340.414,109.073 347.08,115.073 353.5,121.5C 353.5,122.167 353.5,122.833 353.5,123.5C 332.251,101.615 306.251,89.2821 275.5,86.5C 275.665,89.5184 275.498,92.5184 275,95.5C 273.612,96.5536 272.112,96.7203 270.5,96C 264.345,91.0892 258.011,86.4226 251.5,82C 248.833,79.3333 248.833,76.6667 251.5,74C 258.677,68.8188 265.844,63.6521 273,58.5C 273.772,58.6448 274.439,58.9781 275,59.5C 275.498,62.8168 275.665,66.1501 275.5,69.5C 281.098,69.1557 286.432,69.8224 291.5,71.5 Z"/></g>
<g><path style="opacity:0.744" fill="#3683a2" d="M 291.5,71.5 C 296.387,74.2331 301.721,75.5664 307.5,75.5C 310.5,77.5 313.5,79.5 316.5,81.5C 314.421,81.0293 312.421,80.3627 310.5,79.5C 298.655,74.6167 286.321,71.9501 273.5,71.5C 273.82,68.1016 273.487,64.7683 272.5,61.5C 268.075,65.2714 263.409,68.6047 258.5,71.5C 262.307,67.8651 266.307,64.3651 270.5,61C 271.793,60.51 273.127,60.3433 274.5,60.5C 274.5,63.8333 274.5,67.1667 274.5,70.5C 280.189,70.5324 285.855,70.8658 291.5,71.5 Z"/></g>
<g><path style="opacity:1" fill="#3cbbe7" d="M 310.5,79.5 C 310.279,80.7348 309.612,81.7348 308.5,82.5C 304.471,83.0301 300.638,84.0301 297,85.5C 289.993,83.5749 282.993,81.9083 276,80.5C 274.251,80.7483 273.418,81.7483 273.5,83.5C 273.5,86.8333 273.5,90.1667 273.5,93.5C 270.637,93.0706 267.971,92.0706 265.5,90.5C 261.174,86.3431 256.674,82.3431 252,78.5C 252.858,75.1351 255.025,72.8018 258.5,71.5C 263.409,68.6047 268.075,65.2714 272.5,61.5C 273.487,64.7683 273.82,68.1016 273.5,71.5C 286.321,71.9501 298.655,74.6167 310.5,79.5 Z"/></g>
<g><path style="opacity:0.251" fill="#1b485f" d="M 291.5,71.5 C 297.17,71.9174 302.503,73.2507 307.5,75.5C 301.721,75.5664 296.387,74.2331 291.5,71.5 Z"/></g>
<g><path style="opacity:0.333" fill="#21576f" d="M 307.5,75.5 C 327.362,81.4267 343.362,92.76 355.5,109.5C 346.6,101.096 337.267,93.2625 327.5,86C 323.657,84.6389 319.991,83.1389 316.5,81.5C 313.5,79.5 310.5,77.5 307.5,75.5 Z"/></g>
<g><path style="opacity:1" fill="#47b5db" d="M 310.5,79.5 C 312.421,80.3627 314.421,81.0293 316.5,81.5C 319.991,83.1389 323.657,84.6389 327.5,86C 337.267,93.2625 346.6,101.096 355.5,109.5C 361.013,118.523 366.013,127.856 370.5,137.5C 370.545,141.346 371.378,145.013 373,148.5C 373.667,151.5 373.667,154.5 373,157.5C 371.058,153.808 369.224,150.142 367.5,146.5C 367.708,144.08 367.374,141.747 366.5,139.5C 362.289,133.282 357.956,127.282 353.5,121.5C 347.08,115.073 340.414,109.073 333.5,103.5C 315.198,92.2881 295.198,85.6214 273.5,83.5C 273.418,81.7483 274.251,80.7483 276,80.5C 282.993,81.9083 289.993,83.5749 297,85.5C 300.638,84.0301 304.471,83.0301 308.5,82.5C 309.612,81.7348 310.279,80.7348 310.5,79.5 Z"/></g>
<g><path style="opacity:1" fill="#37bdec" d="M 333.5,103.5 C 329.61,97.3016 323.944,93.9682 316.5,93.5C 313.655,91.8555 310.655,90.3555 307.5,89C 310.501,89.0944 312.501,87.7611 313.5,85C 315.5,84.3333 317.5,84.3333 319.5,85C 327.552,89.8805 334.885,95.7138 341.5,102.5C 343.889,103.18 346.222,104.014 348.5,105C 350.438,108.083 352.104,111.249 353.5,114.5C 352.127,114.657 350.793,114.49 349.5,114C 345.209,108.702 339.876,105.202 333.5,103.5 Z"/></g>
<g><path style="opacity:0.306" fill="#295a74" d="M 355.5,109.5 C 363.097,117.357 368.097,126.69 370.5,137.5C 366.013,127.856 361.013,118.523 355.5,109.5 Z"/></g>
<g><path style="opacity:0.937" fill="#97989a" d="M 290.5,171.5 C 291.212,173.928 292.212,176.261 293.5,178.5C 293.043,179.298 292.376,179.631 291.5,179.5C 276.076,151.108 252.41,133.941 220.5,128C 210.17,126.333 199.837,126.166 189.5,127.5C 145.815,136.683 118.648,163.017 108,206.5C 107.5,215.827 107.334,225.161 107.5,234.5C 107.328,235.492 107.662,236.158 108.5,236.5C 116.056,278.891 140.723,305.391 182.5,316C 190.831,316.853 199.164,317.686 207.5,318.5C 206.757,319.182 206.091,319.849 205.5,320.5C 187.72,321.338 171.053,317.672 155.5,309.5C 155.027,308.094 154.027,307.427 152.5,307.5C 124.959,291.468 109.126,267.468 105,235.5C 104.296,225.144 104.463,214.811 105.5,204.5C 107.074,202.898 107.741,200.898 107.5,198.5C 112.207,178.276 122.541,161.443 138.5,148C 170.43,122.333 205.763,116.666 244.5,131C 264.204,139.663 279.538,153.163 290.5,171.5 Z"/></g>
<g><path style="opacity:1" fill="#abc9c9" d="M 185.5,130.5 C 187.265,129.539 189.265,129.205 191.5,129.5C 196.691,129.058 201.691,129.558 206.5,131C 205.833,131.667 205.167,132.333 204.5,133C 205.664,148.762 206.164,164.595 206,180.5C 205.086,179.346 204.253,179.513 203.5,181C 204.293,182.085 204.96,183.252 205.5,184.5C 203.709,185.17 202.042,185.837 200.5,186.5C 198.102,186.259 196.102,186.926 194.5,188.5C 193.167,188.833 191.833,189.167 190.5,189.5C 190.167,189.5 189.833,189.5 189.5,189.5C 189.708,186.175 191.041,183.509 193.5,181.5C 194.719,182.263 195.719,183.263 196.5,184.5C 196.833,183.333 197.167,182.167 197.5,181C 194.869,164.266 193.536,147.433 193.5,130.5C 190.833,130.5 188.167,130.5 185.5,130.5 Z"/></g>
<g><path style="opacity:1" fill="#a0bec3" d="M 191.5,129.5 C 191.5,129.167 191.5,128.833 191.5,128.5C 199.586,128.199 207.586,128.533 215.5,129.5C 213.23,145.901 211.563,162.401 210.5,179C 210.475,181.929 209.809,184.429 208.5,186.5C 205.833,186.5 203.167,186.5 200.5,186.5C 202.042,185.837 203.709,185.17 205.5,184.5C 204.96,183.252 204.293,182.085 203.5,181C 204.253,179.513 205.086,179.346 206,180.5C 206.164,164.595 205.664,148.762 204.5,133C 205.167,132.333 205.833,131.667 206.5,131C 201.691,129.558 196.691,129.058 191.5,129.5 Z"/></g>
<g><path style="opacity:1" fill="#bdd9ce" d="M 185.5,130.5 C 188.167,130.5 190.833,130.5 193.5,130.5C 193.536,147.433 194.869,164.266 197.5,181C 197.167,182.167 196.833,183.333 196.5,184.5C 195.719,183.263 194.719,182.263 193.5,181.5C 191.041,183.509 189.708,186.175 189.5,189.5C 188.833,189.833 188.167,190.167 187.5,190.5C 180.985,173.122 174.152,155.789 167,138.5C 165.989,137.663 164.822,137.33 163.5,137.5C 170.245,133.641 177.578,131.307 185.5,130.5 Z"/></g>
<g><path style="opacity:0.192" fill="#2d6b83" d="M 353.5,121.5 C 357.956,127.282 362.289,133.282 366.5,139.5C 367.374,141.747 367.708,144.08 367.5,146.5C 363.614,138.402 358.948,130.735 353.5,123.5C 353.5,122.833 353.5,122.167 353.5,121.5 Z"/></g>
<g><path style="opacity:1" fill="#65adbe" d="M 215.5,129.5 C 235.667,131.551 253.333,139.217 268.5,152.5C 263.923,158.622 259.09,164.622 254,170.5C 245.527,177.64 237.694,185.473 230.5,194C 229.207,194.49 227.873,194.657 226.5,194.5C 220.966,191.07 214.966,188.737 208.5,187.5C 208.5,187.167 208.5,186.833 208.5,186.5C 209.809,184.429 210.475,181.929 210.5,179C 211.563,162.401 213.23,145.901 215.5,129.5 Z"/></g>
<g><path style="opacity:1" fill="#46504e" d="M 189.5,127.5 C 189.842,128.338 190.508,128.672 191.5,128.5C 191.5,128.833 191.5,129.167 191.5,129.5C 189.265,129.205 187.265,129.539 185.5,130.5C 177.578,131.307 170.245,133.641 163.5,137.5C 145.237,145.955 131.237,158.955 121.5,176.5C 120.326,177.514 119.66,178.847 119.5,180.5C 117.323,183.52 115.657,186.853 114.5,190.5C 111.603,196.756 109.936,203.422 109.5,210.5C 108.833,218.5 108.167,226.5 107.5,234.5C 107.334,225.161 107.5,215.827 108,206.5C 118.648,163.017 145.815,136.683 189.5,127.5 Z"/></g>
<g><path style="opacity:1" fill="#2b3c44" d="M 291.5,179.5 C 292.942,180.82 293.608,182.486 293.5,184.5C 294.791,184.737 295.791,184.404 296.5,183.5C 297.404,184.209 297.737,185.209 297.5,186.5C 299.167,186.5 300.833,186.5 302.5,186.5C 296.984,187.305 291.318,187.972 285.5,188.5C 284.761,188.631 284.094,188.464 283.5,188C 291.803,187.863 293.47,184.696 288.5,178.5C 283.741,168.403 277.074,159.736 268.5,152.5C 253.333,139.217 235.667,131.551 215.5,129.5C 207.586,128.533 199.586,128.199 191.5,128.5C 190.508,128.672 189.842,128.338 189.5,127.5C 199.837,126.166 210.17,126.333 220.5,128C 252.41,133.941 276.076,151.108 291.5,179.5 Z"/></g>
<g><path style="opacity:0.831" fill="#315f72" d="M 370.5,137.5 C 374.048,145.368 375.881,153.701 376,162.5C 374.921,164.394 373.587,164.727 372,163.5C 370.339,157.856 368.839,152.189 367.5,146.5C 369.224,150.142 371.058,153.808 373,157.5C 373.667,154.5 373.667,151.5 373,148.5C 371.378,145.013 370.545,141.346 370.5,137.5 Z"/></g>
<g><path style="opacity:1" fill="#d8ede0" d="M 163.5,137.5 C 164.822,137.33 165.989,137.663 167,138.5C 174.152,155.789 180.985,173.122 187.5,190.5C 185.739,191.313 184.072,192.313 182.5,193.5C 182.5,194.167 182.167,194.5 181.5,194.5C 177.428,197.569 174.094,201.235 171.5,205.5C 159.676,200.175 148.343,194.008 137.5,187C 132.013,185.922 127.013,183.756 122.5,180.5C 121.571,179.311 121.238,177.978 121.5,176.5C 131.237,158.955 145.237,145.955 163.5,137.5 Z"/></g>
<g><path style="opacity:1" fill="#51879b" d="M 268.5,152.5 C 277.074,159.736 283.741,168.403 288.5,178.5C 286.889,180.095 284.889,181.261 282.5,182C 265.153,184.347 249.82,191.014 236.5,202C 235.552,202.483 234.552,202.649 233.5,202.5C 231.167,199.833 228.833,197.167 226.5,194.5C 227.873,194.657 229.207,194.49 230.5,194C 237.694,185.473 245.527,177.64 254,170.5C 259.09,164.622 263.923,158.622 268.5,152.5 Z"/></g>
<g><path style="opacity:0.004" fill="#1c4c62" d="M 357.5,172.5 C 369.171,172.333 380.838,172.5 392.5,173C 393.804,173.804 394.471,174.971 394.5,176.5C 389.176,184.155 382.509,190.488 374.5,195.5C 367.177,189.843 360.51,183.51 354.5,176.5C 355.172,174.84 356.172,173.507 357.5,172.5 Z"/></g>
<g><path style="opacity:0.727" fill="#2f7a97" d="M 391.5,177.5 C 386.208,176.171 380.542,175.504 374.5,175.5C 368.458,175.504 362.792,176.171 357.5,177.5C 356.596,176.791 356.263,175.791 356.5,174.5C 368.5,174.5 380.5,174.5 392.5,174.5C 392.737,175.791 392.404,176.791 391.5,177.5 Z"/></g>
<g><path style="opacity:0.031" fill="#767678" d="M 290.5,171.5 C 293.54,174.914 295.54,178.914 296.5,183.5C 295.791,184.404 294.791,184.737 293.5,184.5C 293.608,182.486 292.942,180.82 291.5,179.5C 292.376,179.631 293.043,179.298 293.5,178.5C 292.212,176.261 291.212,173.928 290.5,171.5 Z"/></g>
<g><path style="opacity:1" fill="#43b9e3" d="M 391.5,177.5 C 386.167,182.167 381.167,187.167 376.5,192.5C 375.448,192.649 374.448,192.483 373.5,192C 369.572,187.564 365.239,183.731 360.5,180.5C 359.833,179.167 358.833,178.167 357.5,177.5C 362.792,176.171 368.458,175.504 374.5,175.5C 380.542,175.504 386.208,176.171 391.5,177.5 Z"/></g>
<g><path style="opacity:0.957" fill="#3c88a5" d="M 360.5,180.5 C 365.239,183.731 369.572,187.564 373.5,192C 374.448,192.483 375.448,192.649 376.5,192.5C 375.399,193.598 374.066,193.765 372.5,193C 368.296,188.964 364.296,184.798 360.5,180.5 Z"/></g>
<g><path style="opacity:1" fill="#64757c" d="M 200.5,186.5 C 203.167,186.5 205.833,186.5 208.5,186.5C 208.5,186.833 208.5,187.167 208.5,187.5C 203.797,187.437 199.13,187.771 194.5,188.5C 196.102,186.926 198.102,186.259 200.5,186.5 Z"/></g>
<g><path style="opacity:1" fill="#36647d" d="M 288.5,178.5 C 293.47,184.696 291.803,187.863 283.5,188C 284.094,188.464 284.761,188.631 285.5,188.5C 284.791,189.404 283.791,189.737 282.5,189.5C 281.903,188.861 281.07,188.528 280,188.5C 276.184,189.412 272.351,190.246 268.5,191C 267.619,191.708 266.953,192.542 266.5,193.5C 263.375,193.865 260.375,194.698 257.5,196C 251.167,200.167 244.833,204.333 238.5,208.5C 237.558,208.392 236.725,208.059 236,207.5C 235.634,205.548 234.801,203.882 233.5,202.5C 234.552,202.649 235.552,202.483 236.5,202C 249.82,191.014 265.153,184.347 282.5,182C 284.889,181.261 286.889,180.095 288.5,178.5 Z"/></g>
<g><path style="opacity:1" fill="#bad8cc" d="M 121.5,176.5 C 121.238,177.978 121.571,179.311 122.5,180.5C 127.013,183.756 132.013,185.922 137.5,187C 148.343,194.008 159.676,200.175 171.5,205.5C 171.029,207.579 170.363,209.579 169.5,211.5C 165.528,207.513 160.528,205.013 154.5,204C 143.436,199.287 131.769,195.287 119.5,192C 118.643,191.311 117.977,190.478 117.5,189.5C 118.933,186.667 119.6,183.667 119.5,180.5C 119.66,178.847 120.326,177.514 121.5,176.5 Z"/></g>
<g><path style="opacity:1" fill="#112a38" d="M 282.5,189.5 C 281.209,189.263 280.209,189.596 279.5,190.5C 275.12,191.293 270.786,192.293 266.5,193.5C 266.953,192.542 267.619,191.708 268.5,191C 272.351,190.246 276.184,189.412 280,188.5C 281.07,188.528 281.903,188.861 282.5,189.5 Z"/></g>
<g><path style="opacity:1" fill="#424b4c" d="M 317.5,190.5 C 315.585,190.216 313.919,190.549 312.5,191.5C 304.648,191.175 296.982,191.508 289.5,192.5C 282.416,192.938 275.749,194.604 269.5,197.5C 265.671,198.367 262.337,200.033 259.5,202.5C 250.476,206.682 242.476,212.349 235.5,219.5C 236.868,216.556 239.201,213.723 242.5,211C 253.089,202.707 264.755,196.54 277.5,192.5C 290.867,189.567 304.201,188.9 317.5,190.5 Z"/></g>
<g><path style="opacity:1" fill="#a28e85" d="M 189.5,189.5 C 189.833,189.5 190.167,189.5 190.5,189.5C 190.099,195.592 187.433,196.925 182.5,193.5C 184.072,192.313 185.739,191.313 187.5,190.5C 188.167,190.167 188.833,189.833 189.5,189.5 Z"/></g>
<g><path style="opacity:1" fill="#121d2c" d="M 208.5,187.5 C 214.966,188.737 220.966,191.07 226.5,194.5C 228.833,197.167 231.167,199.833 233.5,202.5C 234.801,203.882 235.634,205.548 236,207.5C 236.725,208.059 237.558,208.392 238.5,208.5C 244.833,204.333 251.167,200.167 257.5,196C 260.375,194.698 263.375,193.865 266.5,193.5C 256.015,198.576 246.348,204.91 237.5,212.5C 235.486,212.608 233.82,211.942 232.5,210.5C 231.66,208.147 230.326,206.147 228.5,204.5C 226.071,201.064 223.071,198.397 219.5,196.5C 218.4,195.442 217.066,194.608 215.5,194C 211.554,192.857 207.554,192.024 203.5,191.5C 199.458,191.52 195.792,192.52 192.5,194.5C 191.833,194.5 191.167,194.5 190.5,194.5C 191.183,192.824 192.517,192.157 194.5,192.5C 194.5,191.167 194.5,189.833 194.5,188.5C 199.13,187.771 203.797,187.437 208.5,187.5 Z"/></g>
<g><path style="opacity:1" fill="#94918b" d="M 219.5,196.5 C 213.557,195.301 207.557,194.301 201.5,193.5C 198.483,193.768 195.483,194.102 192.5,194.5C 195.792,192.52 199.458,191.52 203.5,191.5C 207.554,192.024 211.554,192.857 215.5,194C 217.066,194.608 218.4,195.442 219.5,196.5 Z"/></g>
<g><path style="opacity:1" fill="#9bb4b9" d="M 289.5,192.5 C 295.833,192.5 302.167,192.5 308.5,192.5C 307.891,210.532 306.891,228.532 305.5,246.5C 305.709,247.086 306.043,247.586 306.5,248C 303.964,248.186 301.631,248.686 299.5,249.5C 298.391,249.557 297.391,249.89 296.5,250.5C 294.708,250.366 293.042,250.699 291.5,251.5C 292.784,249.386 294.784,248.386 297.5,248.5C 295.396,230.523 293.563,212.523 292,194.5C 290.612,193.446 289.112,193.28 287.5,194C 291.378,195.065 291.378,195.899 287.5,196.5C 285.793,196.272 284.126,195.938 282.5,195.5C 278.094,195.748 273.76,196.415 269.5,197.5C 275.749,194.604 282.416,192.938 289.5,192.5 Z"/></g>
<g><path style="opacity:1" fill="#87a5b0" d="M 289.5,192.5 C 296.982,191.508 304.648,191.175 312.5,191.5C 314.735,191.205 316.735,191.539 318.5,192.5C 316.355,211.562 313.688,230.562 310.5,249.5C 306.833,249.5 303.167,249.5 299.5,249.5C 301.631,248.686 303.964,248.186 306.5,248C 306.043,247.586 305.709,247.086 305.5,246.5C 306.891,228.532 307.891,210.532 308.5,192.5C 302.167,192.5 295.833,192.5 289.5,192.5 Z"/></g>
<g><path style="opacity:1" fill="#b4ae9e" d="M 219.5,196.5 C 223.071,198.397 226.071,201.064 228.5,204.5C 227.211,207.789 224.878,210.122 221.5,211.5C 220.833,211.5 220.5,211.167 220.5,210.5C 212.025,201.802 202.358,200.302 191.5,206C 183.59,212.571 181.424,220.738 185,230.5C 187.911,236.918 192.744,240.918 199.5,242.5C 199.833,242.5 200.167,242.5 200.5,242.5C 201.718,243.161 203.051,243.828 204.5,244.5C 203.066,246.22 202.233,248.22 202,250.5C 199.959,251.423 197.792,251.756 195.5,251.5C 183.375,248.54 176.208,240.873 174,228.5C 173.267,223.115 173.433,217.782 174.5,212.5C 178.037,204.96 183.37,198.96 190.5,194.5C 191.167,194.5 191.833,194.5 192.5,194.5C 195.483,194.102 198.483,193.768 201.5,193.5C 207.557,194.301 213.557,195.301 219.5,196.5 Z"/></g>
<g><path style="opacity:1" fill="#b1cdca" d="M 119.5,180.5 C 119.6,183.667 118.933,186.667 117.5,189.5C 117.977,190.478 118.643,191.311 119.5,192C 131.769,195.287 143.436,199.287 154.5,204C 160.528,205.013 165.528,207.513 169.5,211.5C 169.5,211.833 169.5,212.167 169.5,212.5C 167.079,215.099 164.579,215.099 162,212.5C 160.938,213.097 159.772,213.43 158.5,213.5C 143.53,210.622 128.53,207.789 113.5,205C 112.892,203.769 112.559,202.436 112.5,201C 113.276,197.511 113.942,194.011 114.5,190.5C 115.657,186.853 117.323,183.52 119.5,180.5 Z"/></g>
<g><path style="opacity:1" fill="#959f9c" d="M 181.5,194.5 C 182.218,196.137 182.384,197.803 182,199.5C 177.918,202.681 175.085,206.681 173.5,211.5C 172.167,211.5 170.833,211.5 169.5,211.5C 170.363,209.579 171.029,207.579 171.5,205.5C 174.094,201.235 177.428,197.569 181.5,194.5 Z"/></g>
<g><path style="opacity:0.255" fill="#424549" d="M 107.5,198.5 C 107.741,200.898 107.074,202.898 105.5,204.5C 105.595,202.214 106.262,200.214 107.5,198.5 Z"/></g>
<g><path style="opacity:1" fill="#303f48" d="M 312.5,191.5 C 313.919,190.549 315.585,190.216 317.5,190.5C 365.156,198.99 393.323,226.99 402,274.5C 402.61,282.519 402.443,290.519 401.5,298.5C 400.833,290.5 400.167,282.5 399.5,274.5C 399.5,274.167 399.5,273.833 399.5,273.5C 399.223,267.777 397.889,262.443 395.5,257.5C 390.861,240.074 381.528,225.574 367.5,214C 353.007,202.784 336.674,195.617 318.5,192.5C 316.735,191.539 314.735,191.205 312.5,191.5 Z"/></g>
<g><path style="opacity:1" fill="#a5c1c3" d="M 114.5,190.5 C 113.942,194.011 113.276,197.511 112.5,201C 112.559,202.436 112.892,203.769 113.5,205C 128.53,207.789 143.53,210.622 158.5,213.5C 159.772,213.43 160.938,213.097 162,212.5C 164.579,215.099 167.079,215.099 169.5,212.5C 168.781,214.764 168.448,217.097 168.5,219.5C 167.833,219.5 167.5,219.833 167.5,220.5C 148.12,220.191 128.787,220.525 109.5,221.5C 109.5,217.833 109.5,214.167 109.5,210.5C 109.936,203.422 111.603,196.756 114.5,190.5 Z"/></g>
<g><path style="opacity:1" fill="#727475" d="M 228.5,204.5 C 230.326,206.147 231.66,208.147 232.5,210.5C 231.962,215.229 229.628,218.896 225.5,221.5C 223.966,218.227 222.632,214.894 221.5,211.5C 224.878,210.122 227.211,207.789 228.5,204.5 Z"/></g>
<g><path style="opacity:1" fill="#3c3f41" d="M 194.5,188.5 C 194.5,189.833 194.5,191.167 194.5,192.5C 192.517,192.157 191.183,192.824 190.5,194.5C 183.37,198.96 178.037,204.96 174.5,212.5C 174.5,211.833 174.167,211.5 173.5,211.5C 175.085,206.681 177.918,202.681 182,199.5C 182.384,197.803 182.218,196.137 181.5,194.5C 182.167,194.5 182.5,194.167 182.5,193.5C 187.433,196.925 190.099,195.592 190.5,189.5C 191.833,189.167 193.167,188.833 194.5,188.5 Z"/></g>
<g><path style="opacity:1" fill="#605e54" d="M 220.5,210.5 C 219.833,210.5 219.5,210.833 219.5,211.5C 213.552,205.021 206.219,202.854 197.5,205C 184.324,211.872 181.491,221.705 189,234.5C 193.612,239.889 199.445,241.889 206.5,240.5C 204.167,241.167 201.833,241.833 199.5,242.5C 192.744,240.918 187.911,236.918 185,230.5C 181.424,220.738 183.59,212.571 191.5,206C 202.358,200.302 212.025,201.802 220.5,210.5 Z"/></g>
<g><path style="opacity:1" fill="#d9eedf" d="M 288.5,250.5 C 288.631,251.239 288.464,251.906 288,252.5C 286.348,253.399 284.848,254.399 283.5,255.5C 282.833,255.5 282.5,255.833 282.5,256.5C 277.113,259.554 273.113,263.887 270.5,269.5C 266.562,269.365 263.228,267.865 260.5,265C 246.553,259.302 232.886,253.135 219.5,246.5C 219.5,244.833 219.5,243.167 219.5,241.5C 222.661,234.343 226.995,228.01 232.5,222.5C 233.833,221.833 234.833,220.833 235.5,219.5C 242.476,212.349 250.476,206.682 259.5,202.5C 262.106,201.864 264.606,201.864 267,202.5C 274.469,218.404 281.636,234.404 288.5,250.5 Z"/></g>
<g><path style="opacity:1" fill="#a5c1c3" d="M 291.5,251.5 C 289.88,252.841 288.88,254.674 288.5,257C 286.67,257.182 285.003,256.682 283.5,255.5C 284.848,254.399 286.348,253.399 288,252.5C 288.464,251.906 288.631,251.239 288.5,250.5C 289.058,249.21 290.058,248.377 291.5,248C 289.398,245.021 288.731,241.855 289.5,238.5C 289.167,238.167 288.833,237.833 288.5,237.5C 287.749,238.376 287.249,239.376 287,240.5C 286.626,239.584 286.126,238.75 285.5,238C 286.97,236.207 287.97,234.207 288.5,232C 286.174,219.872 284.174,207.705 282.5,195.5C 284.126,195.938 285.793,196.272 287.5,196.5C 291.378,195.899 291.378,195.065 287.5,194C 289.112,193.28 290.612,193.446 292,194.5C 293.563,212.523 295.396,230.523 297.5,248.5C 294.784,248.386 292.784,249.386 291.5,251.5 Z"/></g>
<g><path style="opacity:1" fill="#354550" d="M 169.5,211.5 C 170.833,211.5 172.167,211.5 173.5,211.5C 170.772,217.47 169.439,223.803 169.5,230.5C 168.518,227.038 168.185,223.371 168.5,219.5C 168.448,217.097 168.781,214.764 169.5,212.5C 169.5,212.167 169.5,211.833 169.5,211.5 Z"/></g>
<g><path style="opacity:1" fill="#b3d0c9" d="M 282.5,195.5 C 284.174,207.705 286.174,219.872 288.5,232C 287.97,234.207 286.97,236.207 285.5,238C 286.126,238.75 286.626,239.584 287,240.5C 287.249,239.376 287.749,238.376 288.5,237.5C 288.833,237.833 289.167,238.167 289.5,238.5C 288.731,241.855 289.398,245.021 291.5,248C 290.058,248.377 289.058,249.21 288.5,250.5C 281.636,234.404 274.469,218.404 267,202.5C 264.606,201.864 262.106,201.864 259.5,202.5C 262.337,200.033 265.671,198.367 269.5,197.5C 273.76,196.415 278.094,195.748 282.5,195.5 Z"/></g>
<g><path style="opacity:1" fill="#272a30" d="M 220.5,210.5 C 220.5,211.167 220.833,211.5 221.5,211.5C 222.632,214.894 223.966,218.227 225.5,221.5C 229.628,218.896 231.962,215.229 232.5,210.5C 233.82,211.942 235.486,212.608 237.5,212.5C 225.445,223.895 216.111,237.229 209.5,252.5C 208.833,252.5 208.167,252.5 207.5,252.5C 209.168,249.162 210.834,245.828 212.5,242.5C 208.575,242.002 204.575,242.002 200.5,242.5C 200.167,242.5 199.833,242.5 199.5,242.5C 201.833,241.833 204.167,241.167 206.5,240.5C 208.564,240.313 210.564,239.813 212.5,239C 217.682,233.964 221.015,227.964 222.5,221C 222.664,218.456 221.997,216.29 220.5,214.5C 220.443,213.391 220.11,212.391 219.5,211.5C 219.5,210.833 219.833,210.5 220.5,210.5 Z"/></g>
<g><path style="opacity:0.976" fill="#b6b1a5" d="M 219.5,211.5 C 220.11,212.391 220.443,213.391 220.5,214.5C 220.5,216.167 220.5,217.833 220.5,219.5C 217.405,219.374 215.572,217.707 215,214.5C 214.184,213.177 213.017,212.511 211.5,212.5C 195.823,208.013 189.656,213.68 193,229.5C 196.477,233.822 200.977,235.822 206.5,235.5C 207.72,237.05 207.72,238.716 206.5,240.5C 199.445,241.889 193.612,239.889 189,234.5C 181.491,221.705 184.324,211.872 197.5,205C 206.219,202.854 213.552,205.021 219.5,211.5 Z"/></g>
<g><path style="opacity:1" fill="#56889b" d="M 318.5,192.5 C 336.674,195.617 353.007,202.784 367.5,214C 381.528,225.574 390.861,240.074 395.5,257.5C 378.296,262.926 360.962,268.093 343.5,273C 341.456,273.498 340.122,274.665 339.5,276.5C 334.717,262.387 325.05,253.387 310.5,249.5C 313.688,230.562 316.355,211.562 318.5,192.5 Z"/></g>
<g><path style="opacity:1" fill="#86a4b0" d="M 109.5,210.5 C 109.5,214.167 109.5,217.833 109.5,221.5C 109.334,225.846 109.501,230.179 110,234.5C 111.395,235.815 112.395,235.481 113,233.5C 114.569,234.122 116.236,234.456 118,234.5C 134.141,232.447 150.308,230.614 166.5,229C 167.444,226.281 167.777,223.448 167.5,220.5C 167.5,219.833 167.833,219.5 168.5,219.5C 168.185,223.371 168.518,227.038 169.5,230.5C 169.5,232.167 169.5,233.833 169.5,235.5C 164.751,235.803 160.084,236.637 155.5,238C 141.644,243.067 127.644,247.567 113.5,251.5C 111.635,246.383 109.968,241.383 108.5,236.5C 107.662,236.158 107.328,235.492 107.5,234.5C 108.167,226.5 108.833,218.5 109.5,210.5 Z"/></g>
<g><path style="opacity:1" fill="#9bb5ba" d="M 167.5,220.5 C 167.777,223.448 167.444,226.281 166.5,229C 150.308,230.614 134.141,232.447 118,234.5C 116.236,234.456 114.569,234.122 113,233.5C 112.395,235.481 111.395,235.815 110,234.5C 109.501,230.179 109.334,225.846 109.5,221.5C 128.787,220.525 148.12,220.191 167.5,220.5 Z"/></g>
<g><path style="opacity:0.919" fill="#7c7b7b" d="M 211.5,212.5 C 213.017,212.511 214.184,213.177 215,214.5C 215.572,217.707 217.405,219.374 220.5,219.5C 220.5,217.833 220.5,216.167 220.5,214.5C 221.997,216.29 222.664,218.456 222.5,221C 221.015,227.964 217.682,233.964 212.5,239C 210.564,239.813 208.564,240.313 206.5,240.5C 207.72,238.716 207.72,237.05 206.5,235.5C 216.451,229.699 218.118,222.032 211.5,212.5 Z"/></g>
<g><path style="opacity:1" fill="#898c90" d="M 279.5,190.5 C 278.737,191.268 277.737,191.768 276.5,192C 276.728,192.399 277.062,192.565 277.5,192.5C 264.755,196.54 253.089,202.707 242.5,211C 239.201,213.723 236.868,216.556 235.5,219.5C 234.833,220.833 233.833,221.833 232.5,222.5C 232.565,222.062 232.399,221.728 232,221.5C 212.292,242.788 204.126,267.788 207.5,296.5C 210.403,322.809 222.07,344.309 242.5,361C 249.598,365.537 256.598,370.037 263.5,374.5C 262.262,374.81 262.262,375.31 263.5,376C 266.692,377.09 269.859,378.257 273,379.5C 274.03,379.836 274.53,380.503 274.5,381.5C 243.452,371.118 221.786,350.785 209.5,320.5C 208.169,313.503 206.669,306.503 205,299.5C 203.531,284.891 204.698,270.557 208.5,256.5C 208.833,255.167 209.167,253.833 209.5,252.5C 216.111,237.229 225.445,223.895 237.5,212.5C 246.348,204.91 256.015,198.576 266.5,193.5C 270.786,192.293 275.12,191.293 279.5,190.5 Z"/></g>
<g><path style="opacity:0.89" fill="#949597" d="M 302.5,186.5 C 345.896,186.776 377.396,206.11 397,244.5C 410.116,277.293 407.783,308.96 390,339.5C 387.015,344.311 383.515,348.644 379.5,352.5C 378.791,351.596 377.791,351.263 376.5,351.5C 389.016,337.466 397.016,321.133 400.5,302.5C 401.434,301.432 401.768,300.099 401.5,298.5C 402.443,290.519 402.61,282.519 402,274.5C 393.323,226.99 365.156,198.99 317.5,190.5C 304.201,188.9 290.867,189.567 277.5,192.5C 277.062,192.565 276.728,192.399 276.5,192C 277.737,191.768 278.737,191.268 279.5,190.5C 280.209,189.596 281.209,189.263 282.5,189.5C 283.791,189.737 284.791,189.404 285.5,188.5C 291.318,187.972 296.984,187.305 302.5,186.5 Z"/></g>
<g><path style="opacity:1" fill="#558a9c" d="M 169.5,235.5 C 172.875,241.049 176.875,246.216 181.5,251C 185.434,253.464 189.434,255.631 193.5,257.5C 191.876,257.36 190.71,258.027 190,259.5C 184.844,276.132 180.011,292.798 175.5,309.5C 175.685,310.584 176.018,311.584 176.5,312.5C 145.35,302.684 124.35,282.351 113.5,251.5C 127.644,247.567 141.644,243.067 155.5,238C 160.084,236.637 164.751,235.803 169.5,235.5 Z"/></g>
<g><path style="opacity:1" fill="#727576" d="M 207.5,252.5 C 203.298,252.817 199.298,252.483 195.5,251.5C 197.792,251.756 199.959,251.423 202,250.5C 202.233,248.22 203.066,246.22 204.5,244.5C 203.051,243.828 201.718,243.161 200.5,242.5C 204.575,242.002 208.575,242.002 212.5,242.5C 210.834,245.828 209.168,249.162 207.5,252.5 Z"/></g>
<g><path style="opacity:1" fill="#141e2c" d="M 173.5,211.5 C 174.167,211.5 174.5,211.833 174.5,212.5C 173.433,217.782 173.267,223.115 174,228.5C 176.208,240.873 183.375,248.54 195.5,251.5C 199.298,252.483 203.298,252.817 207.5,252.5C 208.167,252.5 208.833,252.5 209.5,252.5C 209.167,253.833 208.833,255.167 208.5,256.5C 205.272,257.414 201.939,257.747 198.5,257.5C 196.833,257.5 195.167,257.5 193.5,257.5C 189.434,255.631 185.434,253.464 181.5,251C 176.875,246.216 172.875,241.049 169.5,235.5C 169.5,233.833 169.5,232.167 169.5,230.5C 169.439,223.803 170.772,217.47 173.5,211.5 Z"/></g>
<g><path style="opacity:1" fill="#b0cdc9" d="M 218.5,243.5 C 217.54,247.195 217.54,250.861 218.5,254.5C 234.183,259.841 249.849,265.341 265.5,271C 266.667,271.5 267.5,272.333 268,273.5C 268.278,272.584 268.778,271.918 269.5,271.5C 269.5,271.833 269.5,272.167 269.5,272.5C 268.833,274.167 268.167,275.833 267.5,277.5C 265.418,277.472 263.584,278.139 262,279.5C 249.56,275.079 236.726,272.412 223.5,271.5C 219.576,268.818 215.409,268.151 211,269.5C 211.773,266.299 212.273,262.965 212.5,259.5C 213.531,253.733 215.531,248.399 218.5,243.5 Z"/></g>
<g><path style="opacity:1" fill="#b3ad9d" d="M 307.5,255.5 C 327.114,259.352 336.114,271.352 334.5,291.5C 331.086,302.584 324.086,310.584 313.5,315.5C 312.5,315.5 311.5,315.5 310.5,315.5C 303.681,315.871 297.014,315.205 290.5,313.5C 283.463,310.129 278.463,304.795 275.5,297.5C 274.502,290.862 274.335,284.195 275,277.5C 277.281,274.937 278.448,271.937 278.5,268.5C 285.421,258.289 295.087,253.956 307.5,255.5 Z M 297.5,296.5 C 291.647,291.837 289.98,285.837 292.5,278.5C 297.295,272.638 303.295,271.138 310.5,274C 318.49,281.376 318.49,288.709 310.5,296C 306.209,297.746 301.875,297.913 297.5,296.5 Z"/></g>
<g><path style="opacity:1" fill="#16202d" d="M 299.5,249.5 C 303.167,249.5 306.833,249.5 310.5,249.5C 325.05,253.387 334.717,262.387 339.5,276.5C 339.5,280.5 339.5,284.5 339.5,288.5C 339.5,288.833 339.5,289.167 339.5,289.5C 337.744,290.552 337.077,292.219 337.5,294.5C 336.5,294.5 335.5,294.5 334.5,294.5C 334.5,293.5 334.5,292.5 334.5,291.5C 336.114,271.352 327.114,259.352 307.5,255.5C 302.099,254.175 296.599,254.175 291,255.5C 290.134,253.104 290.634,252.437 292.5,253.5C 294.261,252.965 295.594,251.965 296.5,250.5C 297.391,249.89 298.391,249.557 299.5,249.5 Z"/></g>
<g><path style="opacity:1" fill="#bbd8ce" d="M 219.5,241.5 C 219.5,243.167 219.5,244.833 219.5,246.5C 232.886,253.135 246.553,259.302 260.5,265C 263.228,267.865 266.562,269.365 270.5,269.5C 270.167,270.167 269.833,270.833 269.5,271.5C 268.778,271.918 268.278,272.584 268,273.5C 267.5,272.333 266.667,271.5 265.5,271C 249.849,265.341 234.183,259.841 218.5,254.5C 217.54,250.861 217.54,247.195 218.5,243.5C 218.328,242.508 218.662,241.842 219.5,241.5 Z"/></g>
<g><path style="opacity:1" fill="#484e51" d="M 296.5,250.5 C 295.594,251.965 294.261,252.965 292.5,253.5C 290.634,252.437 290.134,253.104 291,255.5C 296.599,254.175 302.099,254.175 307.5,255.5C 295.087,253.956 285.421,258.289 278.5,268.5C 276.588,270.657 274.921,272.991 273.5,275.5C 271.856,275.286 270.356,275.62 269,276.5C 268.501,281.823 268.334,287.156 268.5,292.5C 267.517,288.702 267.183,284.702 267.5,280.5C 267.5,279.5 267.5,278.5 267.5,277.5C 268.167,275.833 268.833,274.167 269.5,272.5C 271.195,271.989 272.861,271.322 274.5,270.5C 276.771,266.726 279.604,263.393 283,260.5C 283.195,259.181 283.028,257.847 282.5,256.5C 282.5,255.833 282.833,255.5 283.5,255.5C 285.003,256.682 286.67,257.182 288.5,257C 288.88,254.674 289.88,252.841 291.5,251.5C 293.042,250.699 294.708,250.366 296.5,250.5 Z"/></g>
<g><path style="opacity:1" fill="#454e50" d="M 232.5,222.5 C 226.995,228.01 222.661,234.343 219.5,241.5C 218.662,241.842 218.328,242.508 218.5,243.5C 215.531,248.399 213.531,253.733 212.5,259.5C 210.719,263.2 209.719,267.2 209.5,271.5C 208.508,278.982 208.175,286.648 208.5,294.5C 207.662,294.842 207.328,295.508 207.5,296.5C 204.126,267.788 212.292,242.788 232,221.5C 232.399,221.728 232.565,222.062 232.5,222.5 Z"/></g>
<g><path style="opacity:1" fill="#85a4b0" d="M 395.5,257.5 C 397.889,262.443 399.223,267.777 399.5,273.5C 398.732,272.737 398.232,271.737 398,270.5C 397.167,271.333 396.333,272.167 395.5,273C 388.47,273.587 381.47,274.42 374.5,275.5C 373.006,275.709 371.839,276.376 371,277.5C 370.107,276.919 369.107,276.585 368,276.5C 358.818,277.418 349.651,278.418 340.5,279.5C 340.81,282.713 340.477,285.713 339.5,288.5C 339.5,284.5 339.5,280.5 339.5,276.5C 340.122,274.665 341.456,273.498 343.5,273C 360.962,268.093 378.296,262.926 395.5,257.5 Z"/></g>
<g><path style="opacity:1" fill="#2d3d45" d="M 108.5,236.5 C 109.968,241.383 111.635,246.383 113.5,251.5C 124.35,282.351 145.35,302.684 176.5,312.5C 180.04,312.753 183.373,313.419 186.5,314.5C 187.919,315.451 189.585,315.784 191.5,315.5C 196.341,316.532 201.341,316.532 206.5,315.5C 201.697,296.564 201.363,277.564 205.5,258.5C 203.5,258.5 201.5,258.5 199.5,258.5C 199.167,258.5 198.833,258.5 198.5,258.5C 198.5,258.167 198.5,257.833 198.5,257.5C 201.939,257.747 205.272,257.414 208.5,256.5C 204.698,270.557 203.531,284.891 205,299.5C 206.669,306.503 208.169,313.503 209.5,320.5C 208.167,320.5 206.833,320.5 205.5,320.5C 206.091,319.849 206.757,319.182 207.5,318.5C 199.164,317.686 190.831,316.853 182.5,316C 140.723,305.391 116.056,278.891 108.5,236.5 Z"/></g>
<g><path style="opacity:1" fill="#a4ada6" d="M 282.5,256.5 C 283.028,257.847 283.195,259.181 283,260.5C 279.604,263.393 276.771,266.726 274.5,270.5C 272.861,271.322 271.195,271.989 269.5,272.5C 269.5,272.167 269.5,271.833 269.5,271.5C 269.833,270.833 270.167,270.167 270.5,269.5C 273.113,263.887 277.113,259.554 282.5,256.5 Z"/></g>
<g><path style="opacity:1" fill="#a7c2c6" d="M 212.5,259.5 C 212.273,262.965 211.773,266.299 211,269.5C 215.409,268.151 219.576,268.818 223.5,271.5C 236.726,272.412 249.56,275.079 262,279.5C 263.584,278.139 265.418,277.472 267.5,277.5C 267.5,278.5 267.5,279.5 267.5,280.5C 266.527,282.948 266.194,285.615 266.5,288.5C 247.727,288.04 229.06,289.04 210.5,291.5C 209.503,284.866 209.17,278.2 209.5,271.5C 209.719,267.2 210.719,263.2 212.5,259.5 Z"/></g>
<g><path style="opacity:1" fill="#5f5d53" d="M 296.5,265.5 C 308.876,263.273 318.043,267.606 324,278.5C 325.672,298.494 316.505,307.327 296.5,305C 284.784,298.729 280.951,289.229 285,276.5C 288.07,271.927 291.904,268.261 296.5,265.5 Z M 297.5,296.5 C 291.647,291.837 289.98,285.837 292.5,278.5C 297.295,272.638 303.295,271.138 310.5,274C 318.49,281.376 318.49,288.709 310.5,296C 306.209,297.746 301.875,297.913 297.5,296.5 Z"/></g>
<g><path style="opacity:1" fill="#b6b1a6" d="M 298.5,266.5 C 316.161,265.66 323.995,273.994 322,291.5C 315.167,304 305.333,307.166 292.5,301C 285.908,294.894 283.742,287.394 286,278.5C 288.744,272.921 292.911,268.921 298.5,266.5 Z M 297.5,296.5 C 291.647,291.837 289.98,285.837 292.5,278.5C 297.295,272.638 303.295,271.138 310.5,274C 318.49,281.376 318.49,288.709 310.5,296C 306.209,297.746 301.875,297.913 297.5,296.5 Z"/></g>
<g><path style="opacity:1" fill="#9bb5ba" d="M 399.5,273.5 C 399.5,273.833 399.5,274.167 399.5,274.5C 399.5,276.833 399.5,279.167 399.5,281.5C 380.853,282.268 362.186,282.768 343.5,283C 342.243,286.291 340.91,289.458 339.5,292.5C 339.5,291.5 339.5,290.5 339.5,289.5C 339.5,289.167 339.5,288.833 339.5,288.5C 340.477,285.713 340.81,282.713 340.5,279.5C 349.651,278.418 358.818,277.418 368,276.5C 369.107,276.585 370.107,276.919 371,277.5C 371.839,276.376 373.006,275.709 374.5,275.5C 381.47,274.42 388.47,273.587 395.5,273C 396.333,272.167 397.167,271.333 398,270.5C 398.232,271.737 398.732,272.737 399.5,273.5 Z"/></g>
<g><path style="opacity:1" fill="#a7c2c5" d="M 399.5,281.5 C 399.646,289.196 399.313,296.862 398.5,304.5C 397.718,307.714 396.885,311.048 396,314.5C 395.617,315.056 395.117,315.389 394.5,315.5C 394.881,312.042 395.381,308.708 396,305.5C 393.263,306.61 390.429,306.777 387.5,306C 373.678,302.795 360.011,299.128 346.5,295C 344.115,294.444 341.782,294.61 339.5,295.5C 339.5,294.5 339.5,293.5 339.5,292.5C 340.91,289.458 342.243,286.291 343.5,283C 362.186,282.768 380.853,282.268 399.5,281.5 Z"/></g>
<g><path style="opacity:1" fill="#94928e" d="M 278.5,268.5 C 278.448,271.937 277.281,274.937 275,277.5C 274.335,284.195 274.502,290.862 275.5,297.5C 274.073,295.852 273.24,293.852 273,291.5C 272.324,286.129 272.491,280.796 273.5,275.5C 274.921,272.991 276.588,270.657 278.5,268.5 Z"/></g>
<g><path style="opacity:1" fill="#3f6c83" d="M 199.5,258.5 C 201.5,258.5 203.5,258.5 205.5,258.5C 201.363,277.564 201.697,296.564 206.5,315.5C 201.341,316.532 196.341,316.532 191.5,315.5C 194.5,315.5 197.5,315.5 200.5,315.5C 197.534,306.45 196.201,297.116 196.5,287.5C 196.746,277.706 197.746,268.04 199.5,258.5 Z"/></g>
<g><path style="opacity:1" fill="#9ab4ba" d="M 209.5,271.5 C 209.17,278.2 209.503,284.866 210.5,291.5C 229.06,289.04 247.727,288.04 266.5,288.5C 266.773,290.451 266.107,291.951 264.5,293C 246.111,294.68 227.777,296.847 209.5,299.5C 208.549,298.081 208.216,296.415 208.5,294.5C 208.175,286.648 208.508,278.982 209.5,271.5 Z"/></g>
<g><path style="opacity:0.02" fill="#87837c" d="M 292.5,278.5 C 289.98,285.837 291.647,291.837 297.5,296.5C 295.61,296.703 294.11,296.037 293,294.5C 288.852,289.076 288.686,283.742 292.5,278.5 Z"/></g>
<g><path style="opacity:1" fill="#66a5b1" d="M 193.5,257.5 C 195.167,257.5 196.833,257.5 198.5,257.5C 198.5,257.833 198.5,258.167 198.5,258.5C 197.167,258.5 195.833,258.5 194.5,258.5C 191.41,277.228 188.743,295.894 186.5,314.5C 183.373,313.419 180.04,312.753 176.5,312.5C 176.018,311.584 175.685,310.584 175.5,309.5C 180.011,292.798 184.844,276.132 190,259.5C 190.71,258.027 191.876,257.36 193.5,257.5 Z"/></g>
<g><path style="opacity:1" fill="#85a3b0" d="M 267.5,280.5 C 267.183,284.702 267.517,288.702 268.5,292.5C 268.5,293.167 268.5,293.833 268.5,294.5C 268.5,295.833 268.5,297.167 268.5,298.5C 249.96,303.569 231.627,309.236 213.5,315.5C 211.538,310.365 210.204,305.032 209.5,299.5C 227.777,296.847 246.111,294.68 264.5,293C 266.107,291.951 266.773,290.451 266.5,288.5C 266.194,285.615 266.527,282.948 267.5,280.5 Z"/></g>
<g><path style="opacity:1" fill="#9cbbc1" d="M 198.5,258.5 C 198.833,258.5 199.167,258.5 199.5,258.5C 197.746,268.04 196.746,277.706 196.5,287.5C 196.201,297.116 197.534,306.45 200.5,315.5C 197.5,315.5 194.5,315.5 191.5,315.5C 189.585,315.784 187.919,315.451 186.5,314.5C 188.743,295.894 191.41,277.228 194.5,258.5C 195.833,258.5 197.167,258.5 198.5,258.5 Z"/></g>
<g><path style="opacity:1" fill="#67747a" d="M 338.5,295.5 C 337.766,296.708 337.433,298.041 337.5,299.5C 336.662,299.842 336.328,300.508 336.5,301.5C 335.167,301.5 333.833,301.5 332.5,301.5C 333.73,299.703 334.396,297.703 334.5,295.5C 335.833,295.5 337.167,295.5 338.5,295.5 Z"/></g>
<g><path style="opacity:1" fill="#707b7f" d="M 399.5,274.5 C 400.167,282.5 400.833,290.5 401.5,298.5C 401.768,300.099 401.434,301.432 400.5,302.5C 400.631,301.761 400.464,301.094 400,300.5C 399.79,302.058 399.29,303.391 398.5,304.5C 399.313,296.862 399.646,289.196 399.5,281.5C 399.5,279.167 399.5,276.833 399.5,274.5 Z"/></g>
<g><path style="opacity:1" fill="#b2ceca" d="M 394.5,315.5 C 393.296,320.895 391.296,325.895 388.5,330.5C 388.244,328.208 388.577,326.041 389.5,324C 388.929,322.795 388.262,321.628 387.5,320.5C 370.474,314.093 353.807,307.093 337.5,299.5C 337.433,298.041 337.766,296.708 338.5,295.5C 338.833,295.5 339.167,295.5 339.5,295.5C 341.782,294.61 344.115,294.444 346.5,295C 360.011,299.128 373.678,302.795 387.5,306C 390.429,306.777 393.263,306.61 396,305.5C 395.381,308.708 394.881,312.042 394.5,315.5 Z"/></g>
<g><path style="opacity:1" fill="#55899d" d="M 268.5,294.5 C 271.284,302.041 275.618,308.708 281.5,314.5C 279.218,313.61 276.885,313.444 274.5,314C 264.275,324.228 253.775,334.061 243,343.5C 240.59,346.397 238.423,349.397 236.5,352.5C 225.538,342.247 217.871,329.914 213.5,315.5C 231.627,309.236 249.96,303.569 268.5,298.5C 268.5,297.167 268.5,295.833 268.5,294.5 Z"/></g>
<g><path style="opacity:1" fill="#141d2c" d="M 273.5,275.5 C 272.491,280.796 272.324,286.129 273,291.5C 273.24,293.852 274.073,295.852 275.5,297.5C 278.463,304.795 283.463,310.129 290.5,313.5C 291.842,314.793 293.509,315.626 295.5,316C 300.684,316.816 305.684,316.65 310.5,315.5C 311.5,315.5 312.5,315.5 313.5,315.5C 314.552,315.351 315.552,315.517 316.5,316C 314.444,316.311 312.444,316.811 310.5,317.5C 309.614,318.325 309.281,319.325 309.5,320.5C 304.5,320.5 299.5,320.5 294.5,320.5C 290.042,318.771 285.709,316.771 281.5,314.5C 275.618,308.708 271.284,302.041 268.5,294.5C 268.5,293.833 268.5,293.167 268.5,292.5C 268.334,287.156 268.501,281.823 269,276.5C 270.356,275.62 271.856,275.286 273.5,275.5 Z"/></g>
<g><path style="opacity:1" fill="#a1a7a2" d="M 332.5,301.5 C 333.833,301.5 335.167,301.5 336.5,301.5C 336.167,302.167 335.833,302.833 335.5,303.5C 332.877,307.791 329.544,311.457 325.5,314.5C 324.972,313.153 324.805,311.819 325,310.5C 327.518,307.429 330.018,304.429 332.5,301.5 Z"/></g>
<g><path style="opacity:1" fill="#bcd9cd" d="M 337.5,299.5 C 353.807,307.093 370.474,314.093 387.5,320.5C 388.262,321.628 388.929,322.795 389.5,324C 388.577,326.041 388.244,328.208 388.5,330.5C 388.5,331.167 388.167,331.5 387.5,331.5C 387.489,329.983 386.823,328.816 385.5,328C 376.987,322.912 367.987,318.578 358.5,315C 351.506,309.939 343.84,306.105 335.5,303.5C 335.833,302.833 336.167,302.167 336.5,301.5C 336.328,300.508 336.662,299.842 337.5,299.5 Z"/></g>
<g><path style="opacity:0.035" fill="#453d3f" d="M 152.5,307.5 C 154.027,307.427 155.027,308.094 155.5,309.5C 153.973,309.573 152.973,308.906 152.5,307.5 Z"/></g>
<g><path style="opacity:1" fill="#d9eedf" d="M 335.5,303.5 C 343.84,306.105 351.506,309.939 358.5,315C 367.987,318.578 376.987,322.912 385.5,328C 386.823,328.816 387.489,329.983 387.5,331.5C 380.995,343.67 372.328,354.003 361.5,362.5C 360.508,362.328 359.842,362.662 359.5,363.5C 358.609,364.11 357.609,364.443 356.5,364.5C 350.333,365.936 344.833,368.603 340,372.5C 334.78,357.741 328.78,343.408 322,329.5C 320.85,325.888 320.017,322.222 319.5,318.5C 321.167,317.167 322.833,315.833 324.5,314.5C 324.833,314.5 325.167,314.5 325.5,314.5C 329.544,311.457 332.877,307.791 335.5,303.5 Z"/></g>
<g><path style="opacity:1" fill="#47504f" d="M 400.5,302.5 C 397.016,321.133 389.016,337.466 376.5,351.5C 372.123,356.043 367.29,360.043 362,363.5C 361.601,363.272 361.435,362.938 361.5,362.5C 372.328,354.003 380.995,343.67 387.5,331.5C 388.167,331.5 388.5,331.167 388.5,330.5C 391.296,325.895 393.296,320.895 394.5,315.5C 395.117,315.389 395.617,315.056 396,314.5C 396.885,311.048 397.718,307.714 398.5,304.5C 399.29,303.391 399.79,302.058 400,300.5C 400.464,301.094 400.631,301.761 400.5,302.5 Z"/></g>
<g><path style="opacity:1" fill="#66aebe" d="M 281.5,314.5 C 285.709,316.771 290.042,318.771 294.5,320.5C 294.5,320.833 294.5,321.167 294.5,321.5C 295.233,328.768 295.066,336.101 294,343.5C 292.166,355.186 290.333,366.852 288.5,378.5C 267.896,376.198 250.563,367.531 236.5,352.5C 238.423,349.397 240.59,346.397 243,343.5C 253.775,334.061 264.275,324.228 274.5,314C 276.885,313.444 279.218,313.61 281.5,314.5 Z"/></g>
<g><path style="opacity:1" fill="#6a6865" d="M 290.5,313.5 C 297.014,315.205 303.681,315.871 310.5,315.5C 305.684,316.65 300.684,316.816 295.5,316C 293.509,315.626 291.842,314.793 290.5,313.5 Z"/></g>
<g><path style="opacity:1" fill="#364249" d="M 339.5,289.5 C 339.5,290.5 339.5,291.5 339.5,292.5C 339.5,293.5 339.5,294.5 339.5,295.5C 339.167,295.5 338.833,295.5 338.5,295.5C 337.167,295.5 335.833,295.5 334.5,295.5C 334.396,297.703 333.73,299.703 332.5,301.5C 330.018,304.429 327.518,307.429 325,310.5C 324.805,311.819 324.972,313.153 325.5,314.5C 325.167,314.5 324.833,314.5 324.5,314.5C 319.344,312.127 316.677,313.793 316.5,319.5C 313.734,321.129 310.734,321.795 307.5,321.5C 303.167,321.5 298.833,321.5 294.5,321.5C 294.5,321.167 294.5,320.833 294.5,320.5C 299.5,320.5 304.5,320.5 309.5,320.5C 309.281,319.325 309.614,318.325 310.5,317.5C 312.444,316.811 314.444,316.311 316.5,316C 315.552,315.517 314.552,315.351 313.5,315.5C 324.086,310.584 331.086,302.584 334.5,291.5C 334.5,292.5 334.5,293.5 334.5,294.5C 335.5,294.5 336.5,294.5 337.5,294.5C 337.077,292.219 337.744,290.552 339.5,289.5 Z"/></g>
<g><path style="opacity:1" fill="#bad7cc" d="M 319.5,318.5 C 320.017,322.222 320.85,325.888 322,329.5C 328.78,343.408 334.78,357.741 340,372.5C 344.833,368.603 350.333,365.936 356.5,364.5C 348.912,370.624 340.245,374.624 330.5,376.5C 329.791,377.404 328.791,377.737 327.5,377.5C 321.848,378.032 316.181,378.365 310.5,378.5C 311.26,367.075 311.594,355.908 311.5,345C 309.387,342.551 309.054,339.885 310.5,337C 310.078,332.481 309.078,328.147 307.5,324C 309.235,323.349 310.902,323.515 312.5,324.5C 313.719,323.737 314.719,322.737 315.5,321.5C 316.167,321.833 316.833,322.167 317.5,322.5C 318.172,321.051 318.839,319.718 319.5,318.5 Z"/></g>
<g><path style="opacity:0.89" fill="#bc2e26" d="M 140.5,316.5 C 141.878,317.545 142.878,318.878 143.5,320.5C 141.269,319.376 138.936,318.876 136.5,319C 131.985,323.348 127.651,327.848 123.5,332.5C 133.144,333.498 142.81,333.832 152.5,333.5C 152.473,331.801 151.806,330.467 150.5,329.5C 151.5,329.5 152.5,329.5 153.5,329.5C 154.038,331.117 154.371,332.784 154.5,334.5C 143.5,334.5 132.5,334.5 121.5,334.5C 121.351,333.448 121.517,332.448 122,331.5C 126.833,326.667 131.667,321.833 136.5,317C 137.793,316.51 139.127,316.343 140.5,316.5 Z"/></g>
<g><path style="opacity:1" fill="#acc9c8" d="M 324.5,314.5 C 322.833,315.833 321.167,317.167 319.5,318.5C 318.839,319.718 318.172,321.051 317.5,322.5C 316.833,322.167 316.167,321.833 315.5,321.5C 314.719,322.737 313.719,323.737 312.5,324.5C 310.902,323.515 309.235,323.349 307.5,324C 309.078,328.147 310.078,332.481 310.5,337C 309.054,339.885 309.387,342.551 311.5,345C 311.594,355.908 311.26,367.075 310.5,378.5C 316.181,378.365 321.848,378.032 327.5,377.5C 324.411,378.785 321.078,379.451 317.5,379.5C 311.819,379.365 306.152,379.032 300.5,378.5C 301.688,359.854 301.688,341.188 300.5,322.5C 303.059,322.802 305.393,322.468 307.5,321.5C 310.734,321.795 313.734,321.129 316.5,319.5C 316.677,313.793 319.344,312.127 324.5,314.5 Z"/></g>
<g><path style="opacity:1" fill="#e94123" d="M 143.5,320.5 C 143.833,320.5 144.167,320.5 144.5,320.5C 146.141,323.795 148.141,326.795 150.5,329.5C 151.806,330.467 152.473,331.801 152.5,333.5C 142.81,333.832 133.144,333.498 123.5,332.5C 127.651,327.848 131.985,323.348 136.5,319C 138.936,318.876 141.269,319.376 143.5,320.5 Z"/></g>
<g><path style="opacity:1" fill="#a1c0c4" d="M 294.5,321.5 C 298.833,321.5 303.167,321.5 307.5,321.5C 305.393,322.468 303.059,322.802 300.5,322.5C 301.688,341.188 301.688,359.854 300.5,378.5C 306.152,379.032 311.819,379.365 317.5,379.5C 308.676,380.657 299.676,380.824 290.5,380C 289.584,379.722 288.918,379.222 288.5,378.5C 290.333,366.852 292.166,355.186 294,343.5C 295.066,336.101 295.233,328.768 294.5,321.5 Z"/></g>
<g><path style="opacity:0.506" fill="#711c1d" d="M 144.5,320.5 C 147.5,323.5 150.5,326.5 153.5,329.5C 152.5,329.5 151.5,329.5 150.5,329.5C 148.141,326.795 146.141,323.795 144.5,320.5 Z"/></g>
<g><path style="opacity:0.012" fill="#781417" d="M 140.5,316.5 C 139.127,316.343 137.793,316.51 136.5,317C 131.667,321.833 126.833,326.667 122,331.5C 121.517,332.448 121.351,333.448 121.5,334.5C 132.5,334.5 143.5,334.5 154.5,334.5C 154.371,332.784 154.038,331.117 153.5,329.5C 156.092,331.036 157.092,333.369 156.5,336.5C 144.495,336.667 132.495,336.5 120.5,336C 119.833,335.333 119.167,334.667 118.5,334C 123.801,327.698 129.468,321.698 135.5,316C 137.387,315.22 139.054,315.387 140.5,316.5 Z"/></g>
<g><path style="opacity:0.076" fill="#662032" d="M 140.5,355.5 C 139.21,354.942 138.377,353.942 138,352.5C 137.721,356.17 137.888,359.837 138.5,363.5C 137.092,359.557 136.092,355.39 135.5,351C 135.946,349.274 136.779,347.774 138,346.5C 139.604,349.247 140.438,352.247 140.5,355.5 Z"/></g>
<g><path style="opacity:1" fill="#d1eadb" d="M 330.5,376.5 C 329.167,376.5 327.833,376.5 326.5,376.5C 323.653,361.776 320.153,347.11 316,332.5C 315.333,330.833 315.333,329.167 316,327.5C 320.273,337.907 323.939,348.573 327,359.5C 328.367,365.172 329.534,370.838 330.5,376.5 Z"/></g>
<g><path style="opacity:0.541" fill="#86898b" d="M 376.5,351.5 C 377.791,351.263 378.791,351.596 379.5,352.5C 372.119,360.357 363.785,367.024 354.5,372.5C 354.5,371.167 353.833,370.5 352.5,370.5C 354.59,368.61 356.923,366.943 359.5,365.5C 360.773,364.743 360.773,364.077 359.5,363.5C 359.842,362.662 360.508,362.328 361.5,362.5C 361.435,362.938 361.601,363.272 362,363.5C 367.29,360.043 372.123,356.043 376.5,351.5 Z"/></g>
<g><path style="opacity:0.506" fill="#91202b" d="M 140.5,355.5 C 141.345,358.543 142.345,361.543 143.5,364.5C 141.589,364.426 140.422,363.426 140,361.5C 139.828,364.826 139.995,368.159 140.5,371.5C 138.96,369.162 138.294,366.495 138.5,363.5C 137.888,359.837 137.721,356.17 138,352.5C 138.377,353.942 139.21,354.942 140.5,355.5 Z"/></g>
<g><path style="opacity:0.51" fill="#7a1c1f" d="M 140.5,371.5 C 141.117,371.611 141.617,371.944 142,372.5C 143.618,377.185 145.118,381.852 146.5,386.5C 143.338,382.025 141.338,377.025 140.5,371.5 Z"/></g>
<g><path style="opacity:0.565" fill="#8b2224" d="M 143.5,365.5 C 145.403,368.979 147.07,372.646 148.5,376.5C 144.906,373.92 143.24,370.254 143.5,365.5 Z"/></g>
<g><path style="opacity:0.024" fill="#636564" d="M 352.5,373.5 C 346.149,377.838 339.149,380.838 331.5,382.5C 331.47,381.503 331.97,380.836 333,380.5C 339.618,378.391 346.118,376.058 352.5,373.5 Z"/></g>
<g><path style="opacity:1" fill="#ce3428" d="M 143.5,364.5 C 143.5,364.833 143.5,365.167 143.5,365.5C 143.24,370.254 144.906,373.92 148.5,376.5C 148.934,379.934 150.6,382.601 153.5,384.5C 155.262,385.262 156.262,386.596 156.5,388.5C 156.5,389.167 156.5,389.833 156.5,390.5C 153.871,387.369 151.038,384.369 148,381.5C 147.333,382.833 147.333,384.167 148,385.5C 150.157,387.817 151.657,390.484 152.5,393.5C 151.363,392.211 150.03,391.211 148.5,390.5C 147.326,389.486 146.66,388.153 146.5,386.5C 145.118,381.852 143.618,377.185 142,372.5C 141.617,371.944 141.117,371.611 140.5,371.5C 139.995,368.159 139.828,364.826 140,361.5C 140.422,363.426 141.589,364.426 143.5,364.5 Z"/></g>
<g><path style="opacity:0.435" fill="#8f2028" d="M 148.5,376.5 C 150.664,378.822 152.331,381.489 153.5,384.5C 150.6,382.601 148.934,379.934 148.5,376.5 Z"/></g>
<g><path style="opacity:1" fill="#384447" d="M 208.5,294.5 C 208.216,296.415 208.549,298.081 209.5,299.5C 210.204,305.032 211.538,310.365 213.5,315.5C 217.871,329.914 225.538,342.247 236.5,352.5C 250.563,367.531 267.896,376.198 288.5,378.5C 288.918,379.222 289.584,379.722 290.5,380C 299.676,380.824 308.676,380.657 317.5,379.5C 321.078,379.451 324.411,378.785 327.5,377.5C 328.791,377.737 329.791,377.404 330.5,376.5C 340.245,374.624 348.912,370.624 356.5,364.5C 357.609,364.443 358.609,364.11 359.5,363.5C 360.773,364.077 360.773,364.743 359.5,365.5C 356.923,366.943 354.59,368.61 352.5,370.5C 323.42,384.988 293.754,386.322 263.5,374.5C 256.598,370.037 249.598,365.537 242.5,361C 222.07,344.309 210.403,322.809 207.5,296.5C 207.328,295.508 207.662,294.842 208.5,294.5 Z"/></g>
<g><path style="opacity:0.627" fill="#939595" d="M 352.5,370.5 C 353.833,370.5 354.5,371.167 354.5,372.5C 353.833,372.833 353.167,373.167 352.5,373.5C 346.118,376.058 339.618,378.391 333,380.5C 331.97,380.836 331.47,381.503 331.5,382.5C 312.386,387.952 293.386,387.619 274.5,381.5C 274.53,380.503 274.03,379.836 273,379.5C 269.859,378.257 266.692,377.09 263.5,376C 262.262,375.31 262.262,374.81 263.5,374.5C 293.754,386.322 323.42,384.988 352.5,370.5 Z"/></g>
<g><path style="opacity:0.325" fill="#801c20" d="M 156.5,388.5 C 160.5,391.833 164.167,395.5 167.5,399.5C 163.562,396.902 159.895,393.902 156.5,390.5C 156.5,389.833 156.5,389.167 156.5,388.5 Z"/></g>
<g><path style="opacity:0.925" fill="#9e2521" d="M 148.5,390.5 C 150.03,391.211 151.363,392.211 152.5,393.5C 156.899,398.249 160.565,403.582 163.5,409.5C 157.388,404.053 152.388,397.72 148.5,390.5 Z"/></g>
<g><path style="opacity:0.369" fill="#8d2321" d="M 168.5,400.5 C 172.192,402.344 175.525,404.677 178.5,407.5C 175.514,406.192 172.514,404.859 169.5,403.5C 168.614,402.675 168.281,401.675 168.5,400.5 Z"/></g>
<g><path style="opacity:0.267" fill="#7d1c1a" d="M 163.5,409.5 C 167.798,412.463 171.798,415.797 175.5,419.5C 170.619,417.291 166.619,413.957 163.5,409.5 Z"/></g>
<g><path style="opacity:0.545" fill="#a42a25" d="M 178.5,407.5 C 187.631,412.401 196.965,416.734 206.5,420.5C 202.211,419.512 197.878,418.679 193.5,418C 188.222,415.76 183.222,413.26 178.5,410.5C 178.5,409.5 178.5,408.5 178.5,407.5 Z"/></g>
<g><path style="opacity:0.31" fill="#9a2b2e" d="M 247.5,419.5 C 245.35,419.095 243.35,418.595 241.5,418C 240.872,420.939 240.205,423.772 239.5,426.5C 239.5,422.5 239.5,418.5 239.5,414.5C 242.803,415.151 245.47,416.818 247.5,419.5 Z"/></g>
<g><path style="opacity:1" fill="#e64025" d="M 156.5,390.5 C 159.895,393.902 163.562,396.902 167.5,399.5C 168.167,399.5 168.5,399.833 168.5,400.5C 168.281,401.675 168.614,402.675 169.5,403.5C 172.514,404.859 175.514,406.192 178.5,407.5C 178.5,408.5 178.5,409.5 178.5,410.5C 183.222,413.26 188.222,415.76 193.5,418C 197.878,418.679 202.211,419.512 206.5,420.5C 207.167,420.5 207.833,420.5 208.5,420.5C 208.5,421.5 208.5,422.5 208.5,423.5C 216.624,425.024 224.79,426.358 233,427.5C 234.592,427.395 236.092,427.061 237.5,426.5C 238.167,426.5 238.833,426.5 239.5,426.5C 240.205,423.772 240.872,420.939 241.5,418C 243.35,418.595 245.35,419.095 247.5,419.5C 247.859,421.371 248.859,422.871 250.5,424C 254.471,425.982 257.804,428.648 260.5,432C 258.514,434.656 256.514,437.323 254.5,440C 250.691,441.99 247.358,444.49 244.5,447.5C 243.5,447.5 242.5,447.5 241.5,447.5C 241.958,444.606 241.291,442.106 239.5,440C 234.177,439.501 228.844,439.334 223.5,439.5C 223.389,438.883 223.056,438.383 222.5,438C 219.518,437.502 216.518,437.335 213.5,437.5C 212.097,436.069 210.431,434.902 208.5,434C 204.021,433.198 199.687,431.865 195.5,430C 188.817,426.394 182.151,422.894 175.5,419.5C 171.798,415.797 167.798,412.463 163.5,409.5C 160.565,403.582 156.899,398.249 152.5,393.5C 151.657,390.484 150.157,387.817 148,385.5C 147.333,384.167 147.333,382.833 148,381.5C 151.038,384.369 153.871,387.369 156.5,390.5 Z"/></g>
<g><path style="opacity:0.118" fill="#9d2823" d="M 208.5,420.5 C 218.096,423.399 227.763,425.399 237.5,426.5C 236.092,427.061 234.592,427.395 233,427.5C 224.79,426.358 216.624,425.024 208.5,423.5C 208.5,422.5 208.5,421.5 208.5,420.5 Z"/></g>
<g><path style="opacity:0.035" fill="#942420" d="M 175.5,419.5 C 182.151,422.894 188.817,426.394 195.5,430C 199.687,431.865 204.021,433.198 208.5,434C 210.431,434.902 212.097,436.069 213.5,437.5C 199.213,434.688 186.547,428.688 175.5,419.5 Z"/></g>
<g><path style="opacity:0.604" fill="#95281f" d="M 213.5,437.5 C 216.518,437.335 219.518,437.502 222.5,438C 223.056,438.383 223.389,438.883 223.5,439.5C 219.878,439.678 216.544,439.011 213.5,437.5 Z"/></g>
<g><path style="opacity:0.149" fill="#942522" d="M 247.5,419.5 C 252.268,422.42 256.934,425.586 261.5,429C 263.602,430.733 263.935,432.733 262.5,435C 256.336,439.667 250.336,444.5 244.5,449.5C 244.5,448.833 244.5,448.167 244.5,447.5C 247.358,444.49 250.691,441.99 254.5,440C 256.514,437.323 258.514,434.656 260.5,432C 257.804,428.648 254.471,425.982 250.5,424C 248.859,422.871 247.859,421.371 247.5,419.5 Z"/></g>
<g><path style="opacity:0.684" fill="#a42e24" d="M 223.5,439.5 C 228.844,439.334 234.177,439.501 239.5,440C 241.291,442.106 241.958,444.606 241.5,447.5C 242.5,447.5 243.5,447.5 244.5,447.5C 244.5,448.167 244.5,448.833 244.5,449.5C 244.5,450.167 244.167,450.5 243.5,450.5C 242.041,450.567 240.708,450.234 239.5,449.5C 239.5,446.833 239.5,444.167 239.5,441.5C 233.902,441.844 228.568,441.178 223.5,439.5 Z"/></g>
<g><path style="opacity:0.102" fill="#732434" d="M 239.5,449.5 C 240.708,450.234 242.041,450.567 243.5,450.5C 242.713,452.104 241.38,452.771 239.5,452.5C 239.5,451.5 239.5,450.5 239.5,449.5 Z"/></g>
</svg>
